<svg width="48" height="59" viewBox="0 0 48 59" fill="none" xmlns="http://www.w3.org/2000/svg">
<g clip-path="url(#clip0_2_12)">
<path fill-rule="evenodd" clip-rule="evenodd" d="M0.100006 50.1H48V51H0.100006V50.1ZM0.100006 28.9H48V29.8H0.100006V28.9Z" fill="white"/>
<path fill-rule="evenodd" clip-rule="evenodd" d="M0.100006 58.1H48V58.9H0.100006V58.1Z" fill="white"/>
<path fill-rule="evenodd" clip-rule="evenodd" d="M44.8 35.4C47.1 35.5 48 37.2 48 38.8C48 38.9 47.9 39 47.6 39H42.9C43 41.5 45 41.9 45.9 41.7C46.1 41.7 46.3 41.6333 46.5 41.5C46.6333 41.4333 46.7333 41.4 46.8 41.4C46.9 41.3 47 41.3 47.1 41.4C47.1667 41.4667 47.2 41.5333 47.2 41.6C47.2 41.6667 47.1667 41.7333 47.1 41.8C47.1 41.8667 47.0667 41.9333 47 42C46.3 42.4 45.6 42.6 44.9 42.5C43 42.4 41.4 41.1 41.4 39C41.4 36.9 43 35.3 44.8 35.4ZM46 38.4C46.2 38.4 46.3 38.4 46.4 38.2C46.4 38.0667 46.4 37.9667 46.4 37.9C46.4 37.5667 46.3333 37.2333 46.2 36.9C46.1 36.6 45.9 36.3 45.6 36.1C45.3333 35.9667 45.0667 35.9 44.8 35.9C44.5333 35.9 44.3 35.9333 44.1 36C43.5 36.2 43.1 36.8 43 38.2V38.3L46 38.4ZM5.5 31.7C6.5 31.9 7.4 32.4 8.2 33.2C9.5 34.6 9.7 37 8 38.3C7.33333 38.7667 6.6 39.0667 5.8 39.2C4.8 39.3333 3.8 39.3667 2.8 39.3H2.7C2.6 39.3 2.6 39.3 2.6 39.5V41.4C2.6 41.5333 2.63333 41.6333 2.7 41.7C2.83333 41.8333 2.93333 41.9333 3 42C3.13333 42 3.2 42.0333 3.2 42.1C3.4 42.1667 3.5 42.2333 3.5 42.3C3.5 42.3667 3.5 42.4 3.5 42.4C3.5 42.4667 3.5 42.5 3.5 42.5C3.43333 42.5667 3.4 42.6 3.4 42.6C3.33333 42.6 3.26667 42.6 3.2 42.6H0.4C0.1 42.6 0 42.6 0 42.4C0 42.2667 0.1 42.1667 0.3 42.1L0.5 42C0.6 41.9 0.6 41.9 0.7 41.8C0.7 41.6667 0.7 41.5667 0.7 41.5C0.7 41.3 0.8 40.5 0.8 40V34.4C0.8 33 0.9 32.6 0.6 32.4C0.4 32.2 0.1 32.3 0.1 31.9C0.2 31.7 0.6 31.6 0.8 31.6C1.26667 31.6 1.73333 31.6 2.2 31.6C3.26667 31.4667 4.36667 31.5 5.5 31.7ZM3.1 38.6C3.5 38.7333 3.86667 38.8 4.2 38.8C6.6 38.7 7.2 37 7.2 35.6C7.2 34.1 6.1 32.2 3.9 32.1C3.6 32.1 3.1 32.1 2.9 32.3C2.83333 32.3667 2.76667 32.4667 2.7 32.6C2.7 32.6667 2.7 32.7333 2.7 32.8V37.9C2.7 38.1 2.73333 38.2667 2.8 38.4C2.9 38.5 3 38.6 3.1 38.6ZM14.5 35.7C14.6 35.7 14.7 35.7 14.7 35.9C14.8 36.2 14.5 36.8 14.4 37.2C14.3 37.4 14.2 37.4 14 37.3C13.8 37.2 13.9 36.9 13.5 36.7C13.5 36.7 12.4 36.2 11.6 37.5C11.4 37.9667 11.3333 38.4667 11.4 39L11.5 41.4C11.5 41.5333 11.5 41.6333 11.5 41.7C11.6 41.9 11.9 42 12 42.1C12.0667 42.1 12.1 42.1333 12.1 42.2C12.1 42.2667 12.1 42.3 12.1 42.3C12.1 42.5 11.9 42.6 11.8 42.6H9.5C9.36667 42.6 9.26667 42.5667 9.2 42.5C9.2 42.5 9.2 42.4667 9.2 42.4C9.13333 42.4 9.13333 42.3667 9.2 42.3C9.2 42.3 9.2 42.2667 9.2 42.2C9.4 42.1 9.6 42 9.8 41.9C9.9 41.6 9.9 41.2 9.9 40.6V37.7C9.9 37.2 9.9 36.9 9.6 36.8C9.53333 36.8 9.46667 36.7667 9.4 36.7C9.4 36.7 9.4 36.6667 9.4 36.6C9.4 36.5333 9.4 36.5 9.4 36.5C9.4 36.4333 9.43333 36.3667 9.5 36.3C9.7 36.1667 9.93333 36.0333 10.2 35.9L10.7 35.6C11.1 35.4 11.3 35.5 11.3 35.6C11.3667 35.7333 11.4 35.9 11.4 36.1C11.4 36.4 11.4 36.7 11.4 36.7L11.7 36.4C12.9 35.5 13.8 35.5 14.3 35.6C14.3667 35.6 14.4333 35.6333 14.5 35.7ZM17.9 35.4C20.2 35.5 21.1 37.3 21.1 38.8C21.1 39 21 39 20.7 39H16C16.1 41.6 18 41.9 19 41.8C19.2 41.7333 19.4 41.6667 19.6 41.6C19.7333 41.5333 19.8333 41.4667 19.9 41.4C20 41.4 20.1 41.3 20.2 41.4C20.2667 41.4667 20.3 41.5333 20.3 41.6C20.3 41.7333 20.2667 41.8333 20.2 41.9C20.1333 41.9667 20.0667 42 20 42C19.4 42.4 18.7 42.6 18 42.5C16.1 42.5 14.4 41.1 14.4 39C14.4 37 16.1 35.4 17.9 35.5V35.4ZM19.1 38.3C19.2 38.3 19.4 38.4 19.5 38.1C19.5 38.0333 19.5 37.9667 19.5 37.9C19.5 37.5 19.4333 37.1333 19.3 36.8C19.2 36.5 19 36.2 18.6 36C18.4 35.9333 18.1667 35.9 17.9 35.9C17.6333 35.9 17.4 35.9333 17.2 36C16.6 36.2 16.2 36.8 16.1 38.2V38.3H19.1ZM26.4 38.4C26.6667 38.4667 26.9333 38.6333 27.2 38.9C27.5 39.2 27.7 39.7 27.7 40.2C27.8 40.6 27.6 41.1 27.3 41.4C26.4 42.7 24.6 42.4 24 42.2C23.9 42.2 23.9 42.2 23.8 42.1C23.6667 42.1 23.5667 42.1333 23.5 42.2C23.4333 42.2 23.4 42.2333 23.4 42.3C23.4 42.3667 23.3667 42.4 23.3 42.4C23.2333 42.4667 23.2 42.5 23.2 42.5C23.1333 42.5 23.0667 42.4667 23 42.4C23 42.4 23 42.3667 23 42.3C23 42.3 22 41.3 21.6 40.8L21.4 40.5C21.4 40.5 21.3 40.4 21.3 40.3C21.3667 40.2333 21.4 40.2 21.4 40.2C21.4667 40.1333 21.5333 40.1 21.6 40.1C21.7333 40.1667 21.8333 40.2333 21.9 40.3C23.1 41.5 24.1 41.7 24.7 41.7C25.2 41.8 26.3 41.6 26.3 40.6C26.4 39.5 24.7 39.3 24.5 39.2C24.2 39.1 22.7 38.8 22.3 38.5C22.0333 38.3 21.8333 38.0333 21.7 37.7C21.6333 37.3667 21.6333 37.0333 21.7 36.7C21.8333 36.4333 21.9667 36.2333 22.1 36.1C22.4 35.8 22.8 35.5 23.3 35.4C23.7667 35.3333 24.2333 35.4 24.7 35.6C24.9 35.7 25.3 35.4 25.3 35.4C25.3 35.4 25.3333 35.3667 25.4 35.3C25.4667 35.3 25.5333 35.3 25.6 35.3C25.6 35.3 25.6333 35.3333 25.7 35.4C25.7667 35.4 25.8 35.4 25.8 35.4C26.2 36.1 26.4 36.4 26.5 36.6C26.6 36.7 26.9 37.1 26.6 37.2C26.6 37.2667 26.5667 37.2667 26.5 37.2C26.4333 37.2 26.3667 37.2 26.3 37.2C26.2333 37.1333 26.1333 37.0333 26 36.9C25.8 36.8 25.5 36.5 25.1 36.3C24.5 35.9 23.2 35.7 22.9 36.4C22.5 37.2 23.2 37.6 24.4 37.8C25.0667 37.9333 25.7 38.1333 26.3 38.4H26.4ZM31 41.5C31.1 41.4 31.2 41.3 31.3 41.4C31.3667 41.4 31.4333 41.4 31.5 41.4C31.5 41.4667 31.5 41.5333 31.5 41.6C31.5 41.6 31.5 41.6333 31.5 41.7C31.4 42 31.1 42.4 30.3 42.5C29.9667 42.5667 29.6667 42.5667 29.4 42.5C28.4 42.4 28.1 41.7 28.1 40.8V36.7C28.1 36.7 28.1 36.5 28 36.5H27.6C27.5333 36.4333 27.5 36.4 27.5 36.4C27.5 36.4 27.5 36.3667 27.5 36.3C27.5 36.3 27.5 36.2667 27.5 36.2C27.5667 36.0667 27.6333 35.9667 27.7 35.9C27.9 35.7 28.1 35.5 28.2 35.3C28.4 35.0333 28.5333 34.7333 28.6 34.4C28.7 34 28.8 33.5 29.1 33.6C29.4 33.6 29.5 33.8 29.5 34C29.5 34.3 29.4 34.6 29.5 34.9V35.8H31.2V36.5H29.5V41C29.5 41 29.5 41.6 30 41.7C30.3333 41.7667 30.6667 41.7 31 41.5ZM32.3 33.5C32.3 33.2 32.6 32.8 33.1 32.7C33.2333 32.6333 33.3667 32.6333 33.5 32.7C33.6333 32.7667 33.7333 32.8667 33.8 33C33.8667 33.0667 33.9 33.1333 33.9 33.2C33.9 33.3333 33.8667 33.4333 33.8 33.5C33.7333 33.6333 33.6333 33.7333 33.5 33.8C33.1 34.1 32.3 34.2 32.3 33.5ZM33.9 41.7C34.1 41.8 34.3 41.9 34.4 42C34.4667 42.0667 34.5 42.1333 34.5 42.2C34.5 42.2667 34.5 42.3 34.5 42.3C34.4333 42.3667 34.4 42.4333 34.4 42.5C34.3333 42.5 34.2667 42.5 34.2 42.5H32C32 42.5 31.9667 42.5 31.9 42.5C31.9 42.4333 31.8667 42.4 31.8 42.4C31.8 42.4 31.8 42.3667 31.8 42.3C31.8 42.3 31.8 42.2667 31.8 42.2C31.8 42.2 31.8 42.1667 31.8 42.1C31.8 42.1 31.8333 42.1 31.9 42.1C32 41.9 32.3 41.9 32.4 41.6C32.4 41.4667 32.4 41.3 32.4 41.1V37.3C32.4 37.2333 32.4 37.1333 32.4 37C32.3333 36.9333 32.2667 36.9 32.2 36.9C32.1 36.8 31.8 36.7 31.9 36.4C31.9667 36.3333 32.0333 36.2667 32.1 36.2C32.5 36 32.9 35.8 33.3 35.6C33.3 35.6 33.7 35.3 33.7 35.9V41.1C33.7 41.3 33.8 41.6 33.9 41.7ZM40.5 40.5C42.3 40.8 42.5 42 42 42.9C41.4 44.2 39.5 44.3 38.3 44.3C37.2 44.3 36 44.1 35.4 43.6C34 42.6 35.8 41.4 35.8 41.4C35.5333 41.4 35.3667 41.3 35.3 41.1C35.2 40.9 35.1 40.7 35.1 40.5C35.0333 40.3 35.0667 40.1 35.2 39.9C35.3 39.5 35.6 39.2 35.9 39C35.7 38.8 35.5 38.5667 35.3 38.3C34.8 37.2 35.3 36.1 36.2 35.5C36.9 35.2 37.6 35 38.3 35C38.4 35 38.5 34.8 38.5 34.8C38.5667 34.5333 38.7 34.3 38.9 34.1C39.4 33.3 40.2 33.3 40.5 33.5C40.9 33.8 40.8 34.6 40.2 34.5C39.9333 34.5 39.7 34.5 39.5 34.5C39.1 34.6 39.1 35.1 39.1 35.1C39.5 35.2 40 35.4 40.3 35.8C40.6333 36.1333 40.8333 36.5333 40.9 37C41 37.5 40.9 38.1 40.6 38.6C40.4 38.8667 40.1667 39.0667 39.9 39.2C39.6 39.4 39.2 39.5 38.9 39.6C38.2 39.7 37.5 39.6 36.8 39.5C36.3 39.8 36.3 40.1 36.6 40.2C36.8 40.2667 37 40.3 37.2 40.3C37.2667 40.3 37.6667 40.3333 38.4 40.4C39.0667 40.4 39.7667 40.4333 40.5 40.5ZM38.7 35.7C38.4333 35.5667 38.1667 35.5333 37.9 35.6C37.6333 35.6 37.3667 35.6667 37.1 35.8C36.8 36.1 36.4 36.6 36.4 37.5C36.4 37.7 36.4333 37.9 36.5 38.1C36.6333 38.3 36.7667 38.4667 36.9 38.6C37.0333 38.8 37.2 38.9333 37.4 39C37.6 39.0667 37.8 39.1 38 39.1C38.3333 39.1667 38.6 39.1333 38.8 39C39.0667 38.8 39.2667 38.5667 39.4 38.3C39.5 38.1 39.6 37.8 39.6 37.5C39.6667 37.1667 39.6333 36.8667 39.5 36.6C39.4 36.2 39.1 35.9 38.7 35.7ZM37.9 43.6C38.6333 43.6667 39.3667 43.6 40.1 43.4C40.3 43.3333 40.4667 43.2 40.6 43C40.6667 42.9333 40.7333 42.8667 40.8 42.8C40.8 42.6667 40.8 42.5667 40.8 42.5C40.8 42.3667 40.7333 42.2333 40.6 42.1C40.5333 41.9667 40.4333 41.9 40.3 41.9C40.0333 41.8333 39.8 41.8 39.6 41.8C38.8 41.8 36.8 41.7 36.7 41.7C36.7 41.7 35.7 42.7 37 43.3C37.2667 43.4333 37.5667 43.5333 37.9 43.6ZM30.8 43.9C30.8 44 30.8 44.1 30.8 44.2C30.9 44.8 31.1 46.1 31.2 47C31.2 48 30.4 48.6 29.1 48.6C28.9 48.6 28.6667 48.5333 28.4 48.4C28.1333 48.3333 27.9 48.1667 27.7 47.9C27.5 47.7 27.3667 47.4667 27.3 47.2C27.3 46.9333 27.3 46.7 27.3 46.5C27.3 45.8 27.4 44 27.4 44C27.4 43.7 27.4 43.8 27.3 43.7C27.3 43.6333 27.3 43.6 27.3 43.6C27.3 43.5333 27.3333 43.5 27.4 43.5C27.4667 43.5 27.5333 43.5 27.6 43.5H28.4C28.4667 43.5 28.5333 43.5 28.6 43.5C28.6 43.5667 28.6 43.6 28.6 43.6C28.6667 43.6667 28.6667 43.7333 28.6 43.8C28.5333 43.8667 28.5 43.9 28.5 43.9C28.4333 43.9 28.4 43.9333 28.4 44C28.4 44 28.4 44.0333 28.4 44.1L28.2 46.9C28.2 47.3 28.3 47.9 29.2 48.1C29.5333 48.1667 29.8667 48.1 30.2 47.9C30.3 47.8 30.5 47.7 30.6 47.5C30.6 47.3 30.7 47.1 30.7 47C30.6333 46.8 30.6 46.6333 30.6 46.5C30.6 45.9 30.4 44.2 30.4 44C30.4 43.9333 30.3667 43.9 30.3 43.9C30.3 43.8333 30.2667 43.7667 30.2 43.7C30.1 43.7 30 43.7 30 43.6C30 43.5333 30 43.5 30 43.5C30 43.5 30.0333 43.5 30.1 43.5C30.1 43.4333 30.1 43.4 30.1 43.4C30.4 43.4 30.7 43.4 30.9 43.4C30.9667 43.4 31 43.4 31 43.4C31.0667 43.4 31.1 43.4333 31.1 43.5C31.2 43.6 31.1 43.6 31 43.7C30.9 43.7 30.8 43.7 30.8 43.9ZM22 47.8C22.0667 47.8667 22.1333 47.9 22.2 47.9C22.2667 47.9667 22.3 48 22.3 48C22.3667 48.0667 22.4 48.1 22.4 48.1C22.4 48.1667 22.4 48.2 22.4 48.2C22.4 48.2667 22.3667 48.3333 22.3 48.4C22.3 48.4 22.2667 48.4 22.2 48.4H21.3C21 48.4 20.8 48.5 20.7 48.4C20.6 48.3 20.6 48 20.7 48C20.8 47.9 20.8 47.7 20.7 47.6L19.9 46.7H18.8V47.9C18.8 48 18.9 48 19 48.1C19.0667 48.1667 19.1 48.2 19.1 48.2C19.1 48.2667 19.1 48.3 19.1 48.3C19.1 48.3667 19.1 48.4 19.1 48.4C19.1 48.4 19.0667 48.4333 19 48.5C19 48.5 18.9667 48.5 18.9 48.5H17.7C17.7 48.5 17.6667 48.5 17.6 48.5C17.6 48.5 17.5667 48.4667 17.5 48.4C17.5 48.4 17.5 48.3667 17.5 48.3C17.5 48.3 17.5 48.2667 17.5 48.2C17.5 48.1 17.6 48.1 17.7 48C17.8 48 17.8 47.7 17.8 47.7V44.3C17.8 44.2333 17.7667 44.1667 17.7 44.1C17.7 43.9667 17.6667 43.9 17.6 43.9C17.5 43.8 17.5 43.8 17.5 43.7C17.5 43.6 17.5 43.5 17.7 43.4C17.8333 43.4 17.9667 43.4 18.1 43.4C19 43.2 19.9 43.3 20.7 43.5C21.5 43.8 22 44.4 21.9 45.2C21.9 46.1 21 46.5 21 46.5C21.2667 46.9667 21.6 47.4 22 47.8ZM20.9 45.5C21 45.3 21 45.1 21 44.9C21 44.6333 20.9 44.4333 20.7 44.3C20.4 43.8 19.5 43.6 19 43.7C18.9333 43.7 18.8667 43.7 18.8 43.7C18.8 43.7667 18.7667 43.8 18.7 43.8C18.7 43.8667 18.7 43.9333 18.7 44C18.7 44 18.7 44.0333 18.7 44.1V46.1C18.7 46.3 18.7 46.4 18.9 46.4C19.3 46.5 20.6 46.5 20.9 45.5ZM17.1 47.6C17.1 47.8 17.2 47.9 17.3 48.1C17.3 48.1 17.3333 48.1333 17.4 48.2C17.4 48.2667 17.3667 48.3 17.3 48.3C17.3 48.3667 17.3 48.4 17.3 48.4C17.2333 48.4667 17.2 48.5 17.2 48.5C17 48.5 16.8667 48.5 16.8 48.5C15.8667 48.5667 14.9667 48.5 14.1 48.3C12.7 48 12.1 46.1 12.9 44.6C13.2333 44.1333 13.6333 43.8 14.1 43.6C14.6 43.4 15.1 43.3 15.6 43.5C15.8 43.5667 16 43.5667 16.2 43.5C16.2667 43.4333 16.3333 43.4333 16.4 43.5C16.4667 43.5 16.5333 43.5333 16.6 43.6C16.6667 43.8 16.7333 44 16.8 44.2C16.8667 44.2667 16.9 44.3667 16.9 44.5C16.9 44.6333 16.8667 44.7 16.8 44.7C16.6667 44.6333 16.5667 44.5667 16.5 44.5C16.4 44.4 16.3 44.3 16.2 44.2C16 44.0667 15.8 43.9667 15.6 43.9C15.4 43.8 15.2 43.8 15 43.8C14.7333 43.8 14.5 43.8667 14.3 44C13.7 44.3 13.4 45.2 13.6 46.5C13.8 48.2 15.6 48 15.9 48C15.9667 48 16.0333 47.9667 16.1 47.9C16.1667 47.9 16.2 47.8667 16.2 47.8C16.2 47.7333 16.2 47.6333 16.2 47.5C16.3 47.4 16.2 47.3 16.2 47.2V46.8C16.2 46.4 16.1 46.4 16.1 46.4C16.0333 46.3333 16 46.2667 16 46.2C15.9333 46.2 15.9 46.2 15.9 46.2C15.9 46.1333 15.9 46.1 15.9 46.1C15.9 46.0333 15.9 46 15.9 46C15.9667 45.9333 16 45.9 16 45.9H17.3C17.4 46 17.3 46.1 17.2 46.2C17.2 46.2667 17.1667 46.3333 17.1 46.4C17.1 46.4667 17.1 46.5 17.1 46.5V47.6ZM24.5 43.3C25.1 43.3 25.6 43.4 26 43.7C26.5 43.9 26.8 44.3 27 44.8C27.2 45.3 27.3 45.8 27.2 46.3C27.1333 46.8333 26.9 47.3 26.5 47.7C26.2 48.1 25.7 48.3 25.2 48.4C24.6667 48.5333 24.1333 48.5 23.6 48.3C23.2 48.1 22.8 47.8 22.5 47.3C22.2 46.9 22 46.4 22 45.9C22 45.2 22.3 44.5 22.7 44.1C23.2 43.6 23.9 43.3 24.5 43.3ZM26.1 45.9C26.1 44.7 25.4 43.7 24.5 43.7C23.7 43.7 23 44.7 23 45.9C23 47.1 23.7 48.1 24.5 48.1C25.4 48.1 26.1 47.1 26.1 45.9ZM34.2 43.5C34.7 43.6 35.1 43.8 35.4 44.2C36 44.8 36.1 45.9 35.4 46.5C35.0667 46.7 34.7 46.8333 34.3 46.9C33.9 46.9667 33.4667 46.9667 33 46.9H32.9C32.9 46.9 32.9 47 32.9 47.1V47.9C32.9 47.9667 32.9 48 32.9 48C32.9667 48.0667 33.0333 48.1333 33.1 48.2C33.1 48.2 33.1 48.2 33.2 48.2C33.2667 48.2667 33.3 48.3 33.3 48.3C33.3 48.3 33.3 48.3333 33.3 48.4C33.3 48.4 33.2333 48.4 33.1 48.4H31.9C31.8 48.4 31.7 48.4 31.7 48.4C31.7 48.3333 31.7667 48.2667 31.9 48.2V48.1C32 48.1 32 48.1 32 48C32 48 32 47.9667 32 47.9C32 47.8 32.1 47.5 32.1 47.2V44.7C32.1 44.1 32.1 43.9 32 43.8C31.9 43.7 31.8 43.7 31.8 43.6C31.8 43.5 32 43.5 32.1 43.4C32.3 43.4 32.5 43.4 32.7 43.4C33.2333 43.4 33.7333 43.4333 34.2 43.5ZM33.1 46.6C33.3 46.6667 33.5 46.7 33.7 46.7C33.8333 46.7 34 46.6667 34.2 46.6C34.3333 46.5333 34.5 46.4333 34.7 46.3C34.8333 46.1667 34.9 46 34.9 45.8C34.9667 45.6667 35 45.5 35 45.3C35 44.9 34.9 44.5 34.6 44.2C34.3 43.9 33.9 43.7 33.5 43.7C33.3667 43.7 33.2 43.7333 33 43.8C33 43.8 33 43.8333 33 43.9C32.9333 43.9 32.9 43.9333 32.9 44V46.3C32.9 46.3667 32.9333 46.4333 33 46.5C33.0667 46.5667 33.1 46.6 33.1 46.6Z" fill="white"/>
<path fill-rule="evenodd" clip-rule="evenodd" d="M31.4 21.3C31.3 23.8 30.6 26.2 29.2 28.3C27.8 30.3 25.9 31.9 23.5 32.9C21.2 33.9 18.7 34.1 16.3 33.6C13.8 33.1 11.6 31.9 9.8 30.2C8 28.4 6.8 26.2 6.4 23.7C5.9 21.3 6.1 18.8 7.1 16.4C8 14.1 9.6 12.2 11.7 10.8C13.8 9.4 16.2 8.7 18.7 8.7C20.4 8.7 22 9 23.5 9.6C25.1 10.3 26.5 11.2 27.7 12.4C28.8 13.5 29.8 14.9 30.4 16.4C31 18 31.4 19.6 31.4 21.3Z" fill="white"/>
<path fill-rule="evenodd" clip-rule="evenodd" d="M18.2 7.3C18.4 7.2 18.9 6.6 18.9 6.6C19.1 6.5 19.5 7 19.3 7.3C19.2 7.4 18.5 8.1 18.5 8.1C18.7667 7.83333 19.0667 7.56667 19.4 7.3C19.5 7.4 19.6 7.4 19.7 7.6C19.7 7.7 19.7 7.8 19.7 7.9C19.5667 8.23333 19.3333 8.53333 19 8.8C19.1 8.8 19.5 8.4 19.6 8.4C19.6 8.4 19.8 8.6 19.8 8.7C19.8 8.8 19.8 8.8 19.8 8.8C19.8 8.8 19.8333 8.8 19.9 8.8C20 8.8 20.2 9 20.1 9.2V9.3C20.1 9.2 20.2 9.2 20.3 9.3C20.3 9.36667 20.3333 9.43333 20.4 9.5C20.4 9.5 20.3 9.6 20.3 9.7C20.4 9.6 20.5 9.8 20.4 10C20.4 10.0667 20.3667 10.1333 20.3 10.2C20.4333 10.0667 20.6 9.96667 20.8 9.9C21.2667 9.63333 21.7667 9.36667 22.3 9.1C22.7667 8.9 23.2 8.66667 23.6 8.4C23.9 8.1 24.2 8.1 24.1 8.4C24 8.8 23.7 9.1 23.7 9.2C23.8 9.3 24 9.1 24.4 8.8C24.8 8.46667 25.2333 8.13333 25.7 7.8C26.2 7.5 26.9 7.4 27.1 7.3C27.5667 7.03333 28.0667 6.83333 28.6 6.7C29.2 6.5 31.1 6 31.4 5.9C31.6 5.8 31.7 5.8 31.8 5.9C31.9 6.1 31.8 6.5 31.5 6.7C31.1 7 30.5 7.1 30.2 7.3C30.4 7.2 31 7 31.4 7C31.4667 7 31.5 7 31.5 7C31.5 7 31.5333 7.03333 31.6 7.1C31.6 7.3 31.4 7.6 31.2 7.9C30.7 8.3 29.7 8.6 29 8.6C29.6 8.6 30.5 8.3 30.2 9.1C30 9.3 29.8 9.6 29.6 9.7C29.4 9.76667 29.2 9.8 29 9.8C28.9 9.9 27.6 10.1 27.5 10.1C27.5 10.1 28.3 10 28.7 9.9C28.7667 9.9 28.8333 9.9 28.9 9.9C28.9667 9.96667 29 10 29 10C29.3 10.3 29.4 10.5 28.9 10.8C28.6333 10.9333 28.3667 11 28.1 11C28 11 26.6 11.1 26.4 11.1C26.4 11.1 27.9 11 28 11.1C28.1333 11.1 28.2333 11.1333 28.3 11.2C28.4 11.3 28.4 11.5 28 11.6C27.7333 11.6667 27.4333 11.7 27.1 11.7C27 11.8 25.9 11.7 25.8 11.7C25.8 11.8 27 11.8 27.1 11.8C27.3 11.8 27.5 11.8 27.5 12C27.5 12.5 27.4 12.6 27.2 12.6C27.1333 12.6667 27.0667 12.7 27 12.7C26.6 12.6 25.3 12.5 25.2 12.5C25.3 12.5 27 12.7 27.1 12.7C27.2 13.3 26.7 13.5 26.2 13.5C26.2 13.5 25.4 13.4 25.3 13.4C25.3 13.4 25.8 13.5 26 13.5C26.1 13.6 26.2 13.6 26.2 13.7C26.2 13.7 26.2 13.7667 26.2 13.9C26.2 13.9667 26.1667 14 26.1 14C26.1 14.0667 26.0667 14.1 26 14.1C25.8667 14.1 25.7 14.1333 25.5 14.2C25.6 14.2 26 14.1 26 14.2C26.2 14.3 26.1 14.5 25.9 14.6C25.8333 14.6 25.7667 14.6 25.7 14.6C25.7 14.6 25.9 14.6 26 14.8C26 15 25.8 15.1 25.7 15.1C25.6 15.1 25.4 15.1 25.3 15.1C25.3 15.1 25.6 15.1 25.7 15.1C25.7 15.2 25.8 15.2 25.7 15.3C25.7 15.3667 25.6667 15.4 25.6 15.4C25.4667 15.4667 25.3 15.5 25.1 15.5C25.2333 15.5 25.4 15.5 25.6 15.5C25.7 15.5 26 15.7 25.8 15.8C25.7 16.1 25.2 16 25.2 16C25.2 16 26.1 16.4 26 16.5C26 16.5 25.8 16.5 24.9 16.4C24.9 16.4 25.6 16.8 25.5 16.9C25.4 17 25.1 17 24.8 16.9C24.7333 16.9 24.6333 16.8667 24.5 16.8C24.7667 16.9333 24.9667 17.1333 25.1 17.4C25.3 17.6 25.3 17.9 25 17.7C24.7 17.5 24.5 17.3 24.5 17.3C24.5 17.3 25 17.7 25 17.8C25 17.9 24.7 17.9 24.7 17.9C24.9 17.9 25.0667 17.9 25.2 17.9C25.3 18 25.3 18.1 25.3 18.1C25.2 18.3 24.7 18.4 24.7 18.4C24.7 18.4 25.1 18.4 24.9 18.5C24.8333 18.6333 24.7333 18.7 24.6 18.7C24.6 18.7 25.1 18.7 25.2 18.7C25.3 18.8 25.2 19.1 24.8 19.2C25.2 19.4 24.8 19.4 24.5 19.5C24.5 19.5 24.8 19.4 24.8 19.6C24.8 19.9 24.5 19.8 24.5 19.8C24.5 19.8 24.8 19.9 24.8 20.1C24.7 20.3 24.1 20.1 24.1 20.1C24.1 20.1 24.8 20.4 24.9 20.6C24.9 20.7 25 20.9 25.2 20.9C25.5333 21.0333 25.8 21.2333 26 21.5C26.4 21.8333 26.8333 22.1 27.3 22.3C28.0333 22.6333 28.7333 23.0333 29.4 23.5C29.8 23.8 30 24 29.8 24C29.4667 24 29.1333 24 28.8 24C29.4 24.4 30 24.7 30.6 24.9C31 24.9667 31.4 25.1 31.8 25.3C31.9 25.4 32.1 25.4 32.3 25.6C32.2333 25.6 32.1667 25.6 32.1 25.6C32.0333 25.5333 32 25.5333 32 25.6C32.1 25.6 32.1 25.7 32.1 25.7C32.0333 25.7 32 25.7 32 25.7C31.9333 25.6333 31.8667 25.5667 31.8 25.5L31.9 25.8C31.8 25.7 31.8 25.7 31.7 25.5V25.7C31.5 25.6 31.5 25.5 31.3 25.4C31 25.4 31.1 25.4 30.9 25.4C30.8 25.4 31.2 25.5 31.2 25.5C31.1 25.6 31.2 25.7 31.1 25.7C30.5 25.4 30.2 25.2 29.5 25C29.3 24.8667 29.1 24.7333 28.9 24.6C28.6 24.4 28.6 24.8 28.8 24.8C28.8 24.8 29.3 25.2 29.2 25.2C29 25.1333 28.8333 25.1 28.7 25.1C28.5 25.1 28.3 25.0667 28.1 25C28 24.8 27.9 24.6 27.7 24.3C27.5 24.0333 27.3 23.8 27.1 23.6C26.8 23.2 26.7 23.5 26.7 23.5C26.7 23.5 27.3 24.1 27.3 24.4C27.4 24.8 27.4 25.2 27.3 25C27.3 24.9 27 24.6 26.7 24C26.3 23.3 26.1 23.1 25.8 22.9C25.4 22.6 24.8 22.5 24.4 22.3C24 22.2 23.5 22.2 23 21.8C22.6 21.5333 22.4 21.4 22.4 21.4C22.4667 21.5333 22.5 21.7 22.5 21.9C22.5 22.0333 22.5 22.1667 22.5 22.3C22.5 22.3 22.3 22.1 22.3 22C22.2333 21.8 22.2 21.7 22.2 21.7C22.2 21.8 22.1 22 22.1 22.1C22.1 22.1667 22.1333 22.2333 22.2 22.3C22.1 22.3 22.1 22.2 22 22.2C21.9333 22.0667 21.9 21.9333 21.9 21.8C21.9 21.8 21.9 22.6 21.8 22.4C21.7333 22.2667 21.6667 22.1333 21.6 22C21.6 22.2 21.6 22.3667 21.6 22.5C21.7 22.6 21.4 22.2 21.4 22.2C21.4 22.2667 21.3667 22.3667 21.3 22.5C21.3 22.6 21.3 22.5 21.3 22.7C21.3 22.7 21.3 22.6 21.2 22.5C21.1333 22.4333 21.1 22.3667 21.1 22.3C21.1 22.3 20.9 22.4 20.9 22.5C20.9667 22.7667 20.9667 23 20.9 23.2C20.7667 23.4667 20.7333 23.7333 20.8 24C20.9 24.2 21 24.3 20.9 24.3C20.8333 24.3 20.8 24.2667 20.8 24.2C20.6 24.2 20.6 24.2 20.5 24.1C20.5667 24.2333 20.6 24.3667 20.6 24.5C20.7 24.6 20.9 24.8 20.8 24.7C20.6 24.7 20.4 24.8 20.3 24.6C20.3 24.7333 20.3333 24.8667 20.4 25C20.4 25.1333 20.4 25.2333 20.4 25.3C20.3333 25.3 20.2667 25.2667 20.2 25.2C20.1333 25.1333 20.1 25.0667 20.1 25C20.0333 25.2 20.0333 25.4 20.1 25.6C20.1 25.8 20.2 25.9 20.1 25.8C19.9 25.8 19.6 25.8 19.6 25.6C19.5333 25.4667 19.4667 25.3333 19.4 25.2C19.4 25.2 19.3 25.6 19.2 25.8C19.2 26 19 25.9 18.8 26.1C18.7333 26.1667 18.7 26.2667 18.7 26.4C18.7 26.5 19 26.6 19.2 26.9C19.2667 27.1 19.3333 27.3333 19.4 27.6C19.5 28.1 19.2 28.5 19.2 28.4C19.2 28 19.1 28 19.1 27.7V27.6C19.0333 27.6 18.9667 27.6 18.9 27.6C18.8333 27.6 18.7667 27.5667 18.7 27.5C18.6333 27.5 18.5667 27.4667 18.5 27.4C18.5 27.3333 18.5 27.2667 18.5 27.2C18.4333 27.0667 18.3333 26.9333 18.2 26.8C18.1333 26.9333 18.0667 27.0333 18 27.1C17.9333 27.1667 17.8667 27.2 17.8 27.2C17.4 27.3 17.2 27.2 17 27.4C16.8667 27.5333 16.8 27.7333 16.8 28C16.7333 27.8667 16.7 27.7 16.7 27.5C16.7 27.3667 16.7333 27.2333 16.8 27.1C16.9333 27.0333 17.0333 26.9667 17.1 26.9C17.1667 26.7667 17.2333 26.6667 17.3 26.6C17.3667 26.6 17.4667 26.5667 17.6 26.5C18 26.5 17.9 26.2 17.9 26.2C17.6 26.2 17.2 26.2 17.2 25.8C17.2 25.7333 17.0667 25.7667 16.8 25.9C16.6 25.9 16.6 26.3 16.6 26.3C16.6 26.3 16.4 25.8 16.6 25.7C16.9 25.4 17.1 25.4 17.3 25.5C17.4333 25.5667 17.5667 25.6667 17.7 25.8C17.8333 25.8667 17.9667 25.9 18.1 25.9C18.1667 25.9 18.2667 25.8667 18.4 25.8C18.6 25.6667 18.7667 25.5 18.9 25.3C18.9 25.1667 18.9333 25.0667 19 25C19 24.6 19 24.2 19 23.9C19 23.5 19.3 22.8 19 22.5C18.7 22.3 18.6 22.2 18.5 22.3C18.5 22.3 18.1 22.5 18.1 22.7C18 22.9 18.1 22.9 18.3 23C18.4 23.1 18.4 23.2 18.6 23.3C18.7 23.4 18.9 23.4 18.9 23.8C18.9667 23.9333 18.9667 24.1 18.9 24.3C18.8 24.5 18.6 24.5 18.6 24.5C18.6 24.3667 18.6 24.2667 18.6 24.2C18.6667 24 18.6667 23.9 18.6 23.9C18.2 23.7 18.5 23.5 18 23.3C18 23.3 17.9667 23.3 17.9 23.3C17.9 23.2333 17.8667 23.2 17.8 23.2C17.8667 23.2667 17.9 23.3667 17.9 23.5C17.9 23.6 17.8 23.5 17.8 23.6C17.8 23.9 17.8 23.8 17.8 24C17.8 23.9 17.7 24 17.7 23.7C17.6 23.5 17.6 23.6 17.5 23.5C17.4333 23.4333 17.4333 23.3333 17.5 23.2C17.4333 23.3333 17.3333 23.4667 17.2 23.6C17.2 23.6 17.1 23.6 17 23.7C16.8 23.9 16.6 24.1 16.7 24.3C16.7 24.3 16.5 24.1 16.5 23.9C16.6 23.7 16.7 23.7 16.8 23.6C16.8 23.4667 16.8333 23.3333 16.9 23.2C17.1 23 17.1 23 17.3 22.9L17.4 22.8C17.3 22.9 17.1 22.9 17 22.8C16.8 22.8 16.8 22.6 16.7 22.6C16.4 22.6 16.3 22.9 16.5 23.1C16.1 22.9 16.2 22.3 16.7 22.3C16.9 22.3 16.9 22.3 17.1 22.4C17.2333 22.4 17.3667 22.4 17.5 22.4C17.7 22.4 18.2 22.2 18 22.1C17.8 22.1 17.7 21.9 17.4 21.7C17.2 21.4 17.3 21.4 17 21.1C16.7 20.8 16.6 20.8 16.6 20.8L16.8 20.3C16.8 20.3 16.8 20.3 16.7 20.3C16.6 20.3 16.4 20.3 16.4 20.3C16.4 20.3 16.4 20.2 16.5 20.1C16.5667 20.0333 16.6333 19.9667 16.7 19.9C16.5 19.9 16.3333 19.9 16.2 19.9C16.2 20 16.2 19.9 16.3 19.7C16.3 19.7 16.4 19.6 16.6 19.5C16.9 19.4 17.3 19.9 17.5 19.5C17.6 19.3 17.5 19.4 17.5 19.4C17.1 19.5 16.9 19.2 16.5 19.2C16.5 19.2667 16.4667 19.3333 16.4 19.4C16.3333 19.4667 16.2667 19.5333 16.2 19.6C15.9 19.7 15.8 19.8 15.7 20C15.6333 20.2667 15.5667 20.5333 15.5 20.8C15.5667 21 15.6667 21.1667 15.8 21.3C15.8 21.3 15.2 21.3 14.9 21C14.7 20.8 14.6 20.5 14.6 20.2C14.5 19.9 14.5 19.9 14.5 19.9C14.5 19.9 14.2 19.8 14.3 19.2C14.3667 18.7333 14.5333 18.3 14.8 17.9C15.2 17.4 15.6 17 16.1 16.8C16.5 16.6 16.8667 16.4 17.2 16.2C17.3333 16.1333 17.4333 16.0333 17.5 15.9C17.4 15.1 17.2 14.4 16.8 13.7C16.2 12.7 15.1 11.5 14.9 11.1C14.6 10.6 14.7 10.7 14.7 10.5C14.7 10.3667 14.7 10.2 14.7 10C14.7667 10.0667 14.8333 10.1333 14.9 10.2C15 10.3 15.3 10.6 15.3 10.6L15.4 10.5C15.1 10.3 15 10 14.8 9.7C14.6 9.3 14.6 8.7 14.7 8.2C14.7667 7.73333 14.8333 7.23333 14.9 6.7C14.9 6.3 14.9 6 15 6C15.1 6 15.3 6.1 15.4 6.4C15.5 6.6 15.5 6.8 15.5 6.7C15.5667 6.36667 15.6 6.03333 15.6 5.7C15.4667 5.3 15.4 4.9 15.4 4.5C15.4667 4.3 15.5667 4.1 15.7 3.9C15.7667 3.3 15.9 2.66667 16.1 2C16.3 1.5 16.7 0.7 16.7 0.3C16.8 0 16.9 0 16.9 0C17 0 17.2 0.1 17.2 0.3C17.3333 0.5 17.4 0.733333 17.4 1C17.3333 1.26667 17.2333 1.53333 17.1 1.8C17.2 1.5 17.4 1.3 17.7 1.2C17.8 1.2 17.9 1.2 18 1.5C18 1.76667 18 2.03333 18 2.3C17.9 2.9 17.5 3.4 17.3 3.9C17.3 3.8 17.5 3.5 17.6 3.3C17.6667 3.23333 17.7667 3.16667 17.9 3.1C17.9667 3.1 18.0333 3.1 18.1 3.1C18.1667 3.1 18.2333 3.13333 18.3 3.2C18.3667 3.26667 18.4 3.33333 18.4 3.4C18.4667 3.46667 18.5 3.53333 18.5 3.6C18.4 4.1 17.7 5.4 17.7 5.4C17.8 5.4 18.2 4.6 18.3 4.4C18.4 4.3 18.4 4.3 18.5 4.4C18.7 4.4 19 4.5 18.9 4.9C18.7 5.43333 18.4667 5.93333 18.2 6.4C18.3333 6.13333 18.5 5.86667 18.7 5.6C18.7667 5.6 18.8333 5.6 18.9 5.6C18.9667 5.6 19.0333 5.6 19.1 5.6C19.2 5.7 19.2 5.8 19 6.1C18.8 6.56667 18.5 6.96667 18.1 7.3H18.2Z" fill="white"/>
<path fill-rule="evenodd" clip-rule="evenodd" d="M24.5 18.4C24.5 18.5 24.8 18.4 24.8 18.5C24.8 18.6 24.7 18.6 24.5 18.7V18.9C24.7 18.8333 24.9 18.8 25.1 18.8C25.2 18.9 25 19.1 24.5 19.1V19.2C24.8 19.2 25.1 19.3 24.3 19.4L24.2 19.5C24.3333 19.5 24.4667 19.5333 24.6 19.6C24.7 19.7 24.5 19.7 24.3 19.7H24.2C24.3333 19.8333 24.4667 19.9333 24.6 20C24.8 20.2 24.3 20 24 20C23.9 20 23.9 20.1 23.9 20.1C24.1667 20.2333 24.4333 20.4 24.7 20.6C24.8 20.7 24.8 20.8 25 20.9C25.1 21.1 25.4 21.1 25.6 21.2C25.8 21.4 25.9 21.6 26.2 21.8C26.5 22 26.9 22.2 27.2 22.4C27.6 22.7 28.1 22.9 28.5 23.1C28.7667 23.2333 29 23.3667 29.2 23.5C29.3333 23.6333 29.4667 23.7333 29.6 23.8C29.2667 23.8 28.9333 23.8333 28.6 23.9C29.4 24.5 30.3 24.9 31.3 25.2L31.9 25.5L31.8 25.4V25.5L31.6 25.4V25.5C31.5333 25.4333 31.4667 25.4 31.4 25.4C31 25.3 31.1 25.2 30.8 25.3C30.7333 25.3 30.7333 25.3 30.8 25.3C30.9 25.4 31.1 25.5 31.1 25.5C31.1 25.5 31.1 25.5333 31.1 25.6C31.1 25.6 31 25.6 31 25.5C30.8 25.4 30.2 25.1 30.2 25.1C29.9 24.9 29.7 24.9 29.5 24.8C29 24.5 28.9 24.4 28.8 24.4C28.6 24.4 28.6 24.5 28.5 24.6C28.5 24.7 28.5 24.8 28.9 25C28.5 24.9 28.4 25.1 28.2 24.9C28 24.6333 27.8 24.3333 27.6 24C27.4 23.7333 27.2 23.5 27 23.3C26.9 23.2 26.5 23.3 26.7 23.5C26.8 23.8 27.3 24.5 27.3 24.7C26.9 24.2 26.4 23.2 26.1 22.9C25.7667 22.7 25.4333 22.5333 25.1 22.4C24.7667 22.3333 24.5 22.2667 24.3 22.2C23.9667 22.1333 23.6333 22.0333 23.3 21.9C22.9667 21.7 22.6333 21.4667 22.3 21.2C22.2 21.4 22.4 21.6 22.4 21.9C22.3 21.8 22.2 21.5 22.1 21.5C22.1 21.6 22.1 21.8 22 21.9C22 21.7667 21.9333 21.6667 21.8 21.6C21.8 21.8 21.8 21.9667 21.8 22.1C21.7333 21.9667 21.6333 21.8333 21.5 21.7C21.5 21.9 21.5 22.1 21.6 22.3C21.5 22.2 21.4 22 21.3 22C21.3 22.1 21.3 22.3 21.3 22.4C21.2 22.3 21.2 22.1 21.1 22.1C21 22.2 20.9 22.3 20.8 22.4C20.8667 22.7333 20.8333 23.0333 20.7 23.3C20.6333 23.5667 20.6667 23.8333 20.8 24.1C20.7 24.1 20.4 24 20.4 24C20.4 24.2 20.4667 24.4 20.6 24.6C20.4 24.6 20.3 24.5 20.2 24.4C20.1333 24.6667 20.1667 24.9 20.3 25.1C20.1667 24.9667 20.0667 24.8333 20 24.7C19.9 25 19.8 25.4 20 25.7C19.6 25.7 19.6 25.5 19.5 25.3C19.5 25.1667 19.4333 25.0667 19.3 25C19.3 25.2 19.2 25.6 19.1 25.8C19 25.9 18.9 26 18.7 26.1C18.6 26.2 18.6 26.4 18.6 26.5C18.7333 26.6333 18.8667 26.8 19 27C19.1333 27.2 19.2 27.3667 19.2 27.5C19.2667 27.7 19.3 27.9 19.3 28.1C19.2 27.9 19.2 27.9 19.2 27.8C19.1 27.6 19.1 27.5 19.1 27.5C19 27.6 18.6 27.5 18.6 27.3C18.5333 27.1 18.4 26.9 18.2 26.7C18.1 26.9 18 27.2 17.7 27.2C17.5 27.2 17.3333 27.2333 17.2 27.3C17.0667 27.3 16.9667 27.3333 16.9 27.4C16.8333 27.5333 16.8 27.6667 16.8 27.8C16.8 27.6667 16.8 27.5333 16.8 27.4C16.8667 27.3333 16.9333 27.2667 17 27.2C17.1 27.1 17.2 26.9 17.3 26.9C17.3667 26.8333 17.4333 26.7667 17.5 26.7C17.9 26.7 18 26.6 18 26.2C17.8 26.1 17.4 26.2 17.4 26.1C17.3 25.8 17.3 25.7 17.2 25.7C17.0667 25.7 16.9333 25.7333 16.8 25.8C16.7333 25.8667 16.6667 25.9333 16.6 26C16.6 25.7 17 25.6 17.2 25.6C17.3333 25.6667 17.4333 25.7333 17.5 25.8C17.6 25.9 17.8 26 17.9 26C18.0333 26.0667 18.2 26.0667 18.4 26C18.6 25.9 18.8 25.8 18.9 25.7C19.0333 25.5 19.1 25.3 19.1 25.1C19.1 24.6 19.1 24.3 19.1 23.9C19.2 23.7 19.3 23.4 19.3 23C19.3 22.9333 19.3 22.8333 19.3 22.7C19.1 22.4 18.7 22.2 18.5 22.3C18.1 22.5 17.9 22.7 18.1 23.1C18.2333 23.1667 18.3667 23.2667 18.5 23.4C18.6 23.5 18.7 23.5 18.8 23.6C18.8 23.6667 18.8 23.7667 18.8 23.9C18.8667 23.9667 18.9 24.0667 18.9 24.2C18.8333 24.2667 18.7667 24.3333 18.7 24.4C18.8 24.1 18.8 24 18.7 23.8C18.6 23.8 18.5 23.8 18.5 23.7C18.4 23.6 18.4 23.5 18.3 23.5C17.9 23.2 17.9 23.1 17.8 23C17.8 23.2 17.8 23.2 17.8 23.4C17.8 23.5 17.9 23.5 17.8 23.6C17.7333 23.6667 17.7333 23.7333 17.8 23.8C17.7 23.6 17.6 23.6 17.6 23.5C17.6 23.2 17.6 23.2 17.5 23.1C17.4333 23.3 17.3667 23.4667 17.3 23.6C17.1667 23.6667 17.0333 23.7333 16.9 23.8C16.8333 23.8667 16.7667 23.9333 16.7 24C16.7 24.0667 16.6667 24.1333 16.6 24.2C16.6 24 16.6 23.9 16.8 23.7C16.9 23.7 16.8 23.5 17 23.3C17 23.3 17.3 23.2 17.3 23.1C17.4 23 17.5 22.9 17.6 22.8C17.5 22.8 17.4 22.8 17.2 22.9C17.1333 22.9 17.0667 22.8667 17 22.8C16.9333 22.8 16.8667 22.7667 16.8 22.7C16.8 22.6 16.5 22.4 16.3 22.9C16.3 22.4 16.7 22.4 16.9 22.5C17.0333 22.5667 17.1667 22.6 17.3 22.6C17.4333 22.6 17.5667 22.6 17.7 22.6C18 22.5 18.1 22.4 18.3 22.2C18.1667 22.2 18.0667 22.1667 18 22.1C17.8667 22.0333 17.8 21.9667 17.8 21.9C17.6667 21.7667 17.5333 21.6333 17.4 21.5C17.3333 21.4333 17.2333 21.3333 17.1 21.2C16.9667 21 16.8667 20.8667 16.8 20.8C16.8 20.6 16.8667 20.4 17 20.2C16.8667 20.2667 16.7333 20.3 16.6 20.3C16.7 20.2 16.8 20.1 16.9 20C16.7 19.9333 16.5 19.9 16.3 19.9C16.5 19.6 17.1 20 17.4 19.9C17.6 19.7 17.6 19.6 17.7 19.4C17 19.5 16.8 19.1 16.4 19.1C16.4 19.3 16.3333 19.4333 16.2 19.5C16.1 19.6 15.8 19.7 15.7 19.9C15.6333 19.9667 15.6 20.0333 15.6 20.1C15.6 19.9 15.7 19.7 15.8 19.5C15.8 19.5 16 19 15.8 19.2C15.6 19.6 15.4 20 15.4 20.5C15.3 20.8 15.3 21.1 15.6 21.2C15.4 21.2 15.2333 21.1667 15.1 21.1C15.0333 21.1 14.9667 21.0333 14.9 20.9C14.8333 20.8333 14.7667 20.7333 14.7 20.6C14.6333 20.4 14.6 20.1667 14.6 19.9C14.6 19.9 14.3 19.9 14.4 19.3C14.4667 18.7667 14.6667 18.3 15 17.9C15.1333 17.7667 15.2667 17.6333 15.4 17.5C16 17 16.7 16.8 17.2 16.5C17.4 16.3 17.5 16.2 17.6 16C17.6 15.4 17.4667 14.8333 17.2 14.3C16.8 13.5667 16.3333 12.8667 15.8 12.2C15.4667 11.8667 15.2 11.5 15 11.1C14.7 10.7 14.8 10.8 14.8 10.6C14.8 10.4667 14.8 10.3667 14.8 10.3C14.9333 10.5 15.1 10.6667 15.3 10.8C15.4333 10.8 15.5333 10.8 15.6 10.8C15.6 10.8 15.5 10.6 15.4 10.5C15.2667 10.3667 15.1333 10.2333 15 10.1C14.8 9.7 14.7 9.3 14.7 8.9C14.7 8.4 14.9 7.8 14.9 7.4C14.9 6.8 14.9 6.4 14.9 6.4C15 6.1 15 6.2 15.1 6.4C15.1667 6.53334 15.2333 6.66667 15.3 6.8C15.5 7.1 15.6 7.2 15.6 6.8C15.7 6.1 15.5 5.5 15.5 4.9C15.5 4.63334 15.5667 4.36667 15.7 4.1C15.7667 3.43334 15.9 2.8 16.1 2.2C16.3667 1.6 16.6 0.96667 16.8 0.300003C17.2 0.400003 17.3 1.1 17 2.1C17.3 1.5 17.5 1.5 17.6 1.4C17.9 1.5 17.8 2.1 17.7 2.7C17.6 3.2 17.4 3.6 17.1 4L17.2 4.1C17.4 3.7 17.8 3.3 17.9 3.3C18.1 3.3 18.3 3.5 18.3 3.6C18.1667 4.26667 17.9333 4.9 17.6 5.5H17.7C18 5.1 18.3 4.5 18.4 4.5C18.4667 4.5 18.5333 4.53334 18.6 4.6C18.6 4.6 18.6333 4.63334 18.7 4.7C18.7 4.7 18.7 4.73334 18.7 4.8C18.7 4.86667 18.7 4.9 18.7 4.9C18.5667 5.43334 18.3667 5.93334 18.1 6.4V6.5C18.3 6.23334 18.5 6.03334 18.7 5.9C18.7667 5.83334 18.8333 5.8 18.9 5.8C19.1 5.8 18.9 6.1 18.6 6.5C18.5 6.8 18.2 7.2 18 7.4H18.1C18.4 7.2 18.9 6.7 19 6.7C19.0667 6.7 19.1333 6.73334 19.2 6.8C19.2 6.86667 19.2 6.93334 19.2 7C19.2 7.13334 19.1667 7.26667 19.1 7.4C18.9 7.6 18.6 7.8 18.3 8.1L18.4 8.2C18.8 7.8 19.3 7.4 19.4 7.5C19.7 7.7 19.6 8 19.4 8.2C19.2667 8.4 19.1333 8.6 19 8.8C19.2 8.8 19.2 8.7 19.5 8.6C19.5 8.6 19.6 8.6 19.7 8.7C19.7 8.8 19.6 8.9 19.5 9L19.6 9.1C19.7 9 19.8 9 19.8 9C19.9333 9.06667 19.9667 9.13334 19.9 9.2C19.9 9.33334 19.8667 9.43334 19.8 9.5C19.9 9.6 19.9 9.6 19.9 9.6C20 9.5 20.1 9.4 20.1 9.4C20.2 9.4 20.2 9.4 20.2 9.5C20.3 9.5 20.2 9.7 20.1 9.8C20.0333 9.86667 20 9.93334 20 10C20.1 10 20.2 9.9 20.3 9.8V9.9C20.3 10 20.2 10.2 20.1 10.4C20 10.5 20.4 10.2 20.4 10.3C20.1333 10.5667 19.9333 10.8333 19.8 11.1C19.7 10.5 19.2 10.7 19 11.4C18.8 12 18.6 13 18.5 14C18.3 14.6667 18.0667 15.3 17.8 15.9C17.9 15.9 17.9 15.9 18 15.9C18.2 15.3667 18.4 14.8 18.6 14.2C18.7 13.3 19 11 19.5 10.9C19.8 10.8 19.5 11.8 19.8 11.4C20 11 20.2333 10.6333 20.5 10.3C20.9 9.96667 21.3 9.7 21.7 9.5C22.0333 9.3 22.3667 9.13334 22.7 9C23.1 8.86667 23.4333 8.66667 23.7 8.4C23.9 8.3 24 8.3 23.8 8.6C23.7 8.9 23.3 9.5 23.8 9.4C24.7 8.8 25.1 8.3 25.8 7.9C26.3 7.6 26.6 7.6 27.1 7.4C27.5 7.2 27.9333 7.03334 28.4 6.9C29.4 6.6 30.4 6.3 31.4 6C31.7 5.9 31.7 6.3 31.5 6.6C31.1 6.9 30.5 7.1 30.1 7.2C30 7.2 30.1 7.4 30.1 7.4C30.2 7.4 31 7.1 31.3 7.1C31.5 7.1 31.4 7.3 31.3 7.5C30.9667 7.9 30.5667 8.13334 30.1 8.2C29.7 8.4 29.2667 8.53334 28.8 8.6C28.7 8.6 28.3 8.7 28.1 8.7V8.8C28.7 8.73334 29.3 8.7 29.9 8.7C30.1 8.7 30.1 8.8 30 9C29.9333 9.13334 29.8 9.26667 29.6 9.4C29.4667 9.53334 29.3 9.6 29.1 9.6C28.4 9.8 27.5 9.9 27.1 10C27.1 10.1 27.1 10.2 27.2 10.2C27.5 10.2 28.7 10.1 28.8 10.1C28.8667 10.1 28.9333 10.1333 29 10.2C29 10.3 29.1 10.4 29 10.5C29 10.6 28.9 10.6 28.7 10.7C28.3667 10.8333 28.0667 10.9 27.8 10.9C27.2 11 26.6 11 26.4 11C26.2 11.1 26.3 11.2 26.4 11.2C26.9 11.3 27.7 11.1 28 11.2C28.2 11.2 28.3 11.3 28.2 11.3C28.1333 11.4333 28 11.5 27.8 11.5C27.5333 11.5667 27.2333 11.6 26.9 11.6C26.4 11.7 25.9 11.6 25.6 11.6C25.5 11.6 25.5 11.8 25.6 11.8C26.2 11.9 27.1 11.9 27.3 12C27.4 12.1 27.4 12.5 27 12.5C26.4 12.5 25.8 12.4667 25.2 12.4C25.1 12.4 25.1 12.6 25.2 12.6C25.8 12.7 27 12.8 27 12.9C26.9 13.5 25.9 13.4 25.2 13.3C25 13.3 25 13.5 25.2 13.5C25.4667 13.5 25.7333 13.5667 26 13.7C26.1 13.7 26.1 13.9 25.9 14C25.7667 14.0667 25.6 14.1 25.4 14.1C25.2 14.1 25.2 14.3 25.5 14.2C25.9 14.2 25.9 14.3 25.9 14.4C25.9 14.5 25.8 14.5 25.6 14.5C25.4 14.5 25.5 14.6 25.6 14.6C25.8 14.7 25.8 14.9 25.7 14.9C25.5667 14.9 25.4333 14.9333 25.3 15C25.1 15 25.1 15.1 25.3 15.1C25.5 15.2 25.9 15.3 25.1 15.4C24.9 15.4 24.9 15.4 25 15.4C25.2 15.4667 25.4333 15.5667 25.7 15.7C26 15.9 25.2 15.9 25 15.9C25.1 16 25.7 16.2 25.7 16.3C25.3667 16.3 25.0333 16.3 24.7 16.3C24.8 16.4 25.1 16.6 25.3 16.7C25.4 16.9 25.3 16.9 25.2 16.9C24.8667 16.8333 24.5667 16.7333 24.3 16.6C24.6 17 25.3 17.5 25.1 17.6C24.9 17.4 24.6667 17.2667 24.4 17.2L24.3 17.3C24.6 17.5 25 17.8 24.8 17.8C24.6 17.8 24.1 17.7 23.9 17.7C23.6 17.8 24.2 17.9 24.7 17.9C25 18 25.2 18 25.2 18C25.3 18.2 24.6 18.3 24.5 18.3V18.4ZM15.4 18.7C15.1 18.9 15.1 19.2 15.2 19.2V19.3C15.2 19.3 15.4 19.4 15.2 19.6C15 19.7 15.3 19.5 15.5 19.3L15.6 19.5C15.6 19.4333 15.6 19.3333 15.6 19.2C15.6 19.1 15.6 19.1 15.6 18.8C15.6667 18.5333 15.7667 18.3 15.9 18.1C15.7667 18.3 15.6 18.5 15.4 18.7ZM14.9 20C14.9 20 14.9 20.0333 14.9 20.1C14.9 20.1667 14.9333 20.2 15 20.2C15 20.2 15 20 15.1 20C15.2 20 14.9 19.9 14.9 20Z" fill="#A88944"/>
<path fill-rule="evenodd" clip-rule="evenodd" d="M15.4 53.8V53.9H15.3C15.2333 53.9 15.1667 53.9 15.1 53.9C15.0333 53.9667 15 54 15 54C14.8667 54.2 14.8 54.3667 14.8 54.5H15.4V54.6H14.8C14.8 54.8667 14.8667 55.1333 15 55.4C15.0667 55.5333 15.2 55.6 15.4 55.6V55.9C15.2667 55.9 15.1333 55.8667 15 55.8C14.9333 55.8 14.8333 55.7333 14.7 55.6C14.5 55.4 14.4 55.2 14.4 54.9C14.4 54.6 14.5 54.3 14.7 54.1C14.7667 53.9667 14.8667 53.8667 15 53.8C15.1333 53.8 15.2667 53.8 15.4 53.8ZM0.5 55.3L1.8 52.4C1.86667 52.4 1.9 52.4 1.9 52.4C1.9 52.4 1.93333 52.4 2 52.4L3.1 55.3C3.1 55.3667 3.13333 55.4667 3.2 55.6C3.26667 55.6667 3.33333 55.7 3.4 55.7C3.46667 55.7 3.53333 55.7 3.6 55.7C3.66667 55.7 3.66667 55.7333 3.6 55.8C3.6 55.8667 3.6 55.9 3.6 55.9C3.6 55.9 3.53333 55.8667 3.4 55.8C3.26667 55.8 3.13333 55.8 3 55.8C2.86667 55.8 2.73333 55.8333 2.6 55.9C2.6 55.9 2.56667 55.9 2.5 55.9C2.5 55.8333 2.5 55.8 2.5 55.8C2.5 55.8 2.53333 55.7667 2.6 55.7C2.66667 55.7 2.73333 55.7 2.8 55.7C2.8 55.6333 2.8 55.5667 2.8 55.5C2.8 55.4333 2.76667 55.4 2.7 55.4L2.5 54.7C2.5 54.6333 2.46667 54.6 2.4 54.6C2.4 54.6 2.36667 54.6 2.3 54.6H1.2C1.13333 54.6 1.1 54.6 1.1 54.6C1.03333 54.6 1 54.6333 1 54.7L0.7 55.3C0.7 55.3 0.666667 55.3333 0.6 55.4C0.6 55.4667 0.6 55.5 0.6 55.5C0.6 55.5667 0.633333 55.6 0.7 55.6C0.7 55.6667 0.733333 55.7 0.8 55.7H0.9C0.966667 55.7667 1 55.8 1 55.8C1 55.8667 1 55.9 1 55.9C1 55.9 0.966667 55.9 0.9 55.9C0.9 55.9 0.833333 55.9 0.7 55.9C0.566667 55.8333 0.466667 55.8 0.4 55.8C0.333333 55.8 0.266667 55.8333 0.2 55.9C0.133333 55.9 0.1 55.9 0.1 55.9C0.0333333 55.9 0 55.8667 0 55.8C0 55.8 0 55.7 0.1 55.7C0.166667 55.7 0.2 55.7 0.2 55.7C0.266667 55.6333 0.3 55.5667 0.3 55.5C0.366667 55.4333 0.433333 55.3667 0.5 55.3ZM1.3 54.4H2.3C2.3 54.3333 2.3 54.3 2.3 54.3V54.2L1.8 53.1C1.73333 53.1 1.7 53.1 1.7 53.1L1.2 54.2C1.2 54.2667 1.2 54.3 1.2 54.3C1.2 54.3667 1.2 54.4 1.2 54.4C1.2 54.4 1.2 54.4 1.3 54.4ZM5.3 55.6C5.23333 55.6667 5.13333 55.7333 5 55.8C4.86667 55.8667 4.73333 55.9 4.6 55.9C4.46667 55.9 4.36667 55.9 4.3 55.9C4.16667 55.8333 4.06667 55.7333 4 55.6C3.8 55.4 3.7 55.2 3.8 54.9C3.8 54.6333 3.9 54.3667 4.1 54.1C4.2 54 4.3 53.8 4.5 53.8C4.7 53.7333 4.9 53.7333 5.1 53.8C5.16667 53.8667 5.23333 53.9333 5.3 54V53C5.36667 52.8667 5.36667 52.7667 5.3 52.7C5.3 52.6333 5.26667 52.6 5.2 52.6C5.2 52.6 5.16667 52.6 5.1 52.6H5C5 52.5333 5 52.5 5 52.5C5 52.5 5.03333 52.5 5.1 52.5L5.2 52.4C5.26667 52.4 5.3 52.4 5.3 52.4C5.36667 52.4 5.43333 52.3667 5.5 52.3C5.56667 52.3 5.63333 52.3 5.7 52.3V52.4C5.7 52.6 5.7 52.8333 5.7 53.1V55.3C5.7 55.3667 5.7 55.4667 5.7 55.6C5.76667 55.6 5.8 55.6333 5.8 55.7C5.8 55.7 5.83333 55.7 5.9 55.7C5.96667 55.7 6 55.7 6 55.7C6 55.7667 5.96667 55.8 5.9 55.8C5.83333 55.8 5.8 55.8 5.8 55.8C5.73333 55.8667 5.63333 55.9 5.5 55.9C5.5 55.9 5.46667 55.9 5.4 55.9V55.6H5.3ZM5.3 55.2V54.4C5.3 54.3333 5.26667 54.2667 5.2 54.2C5.2 54.1333 5.16667 54.1 5.1 54.1C5.03333 54.0333 4.96667 53.9667 4.9 53.9C4.76667 53.9 4.66667 53.9 4.6 53.9C4.53333 53.9 4.43333 53.9 4.3 53.9C4.23333 53.9667 4.16667 54.0333 4.1 54.1C3.96667 54.3 3.93333 54.5 4 54.7C3.93333 54.9667 4 55.2 4.2 55.4C4.26667 55.4667 4.33333 55.5333 4.4 55.6C4.53333 55.6667 4.63333 55.7 4.7 55.7C4.9 55.7 5.03333 55.6667 5.1 55.6C5.16667 55.5333 5.2 55.4667 5.2 55.4C5.26667 55.3333 5.3 55.2667 5.3 55.2ZM7.8 55.6C7.66667 55.6667 7.53333 55.7333 7.4 55.8C7.26667 55.8667 7.13333 55.9 7 55.9C6.93333 55.9 6.83333 55.9 6.7 55.9C6.56667 55.8333 6.46667 55.7333 6.4 55.6C6.3 55.4 6.2 55.2 6.2 54.9C6.2 54.6 6.3 54.3 6.5 54.1C6.63333 53.9667 6.8 53.8667 7 53.8C7.13333 53.7333 7.3 53.7333 7.5 53.8C7.63333 53.8667 7.73333 53.9333 7.8 54V53C7.8 52.8667 7.76667 52.7667 7.7 52.7C7.7 52.6333 7.7 52.6 7.7 52.6C7.63333 52.6 7.6 52.6 7.6 52.6C7.5 52.6 7.5 52.6 7.4 52.6C7.4 52.5333 7.4 52.5 7.4 52.5C7.4 52.5 7.43333 52.5 7.5 52.5L7.7 52.4C7.7 52.4 7.73333 52.4 7.8 52.4C7.86667 52.4 7.93333 52.3667 8 52.3C8 52.3 8.03333 52.3 8.1 52.3C8.16667 52.3 8.2 52.3 8.2 52.3V52.4C8.13333 52.6 8.1 52.8333 8.1 53.1V55.3C8.1 55.3667 8.13333 55.4667 8.2 55.6C8.2 55.6 8.2 55.6333 8.2 55.7C8.26667 55.7 8.3 55.7 8.3 55.7H8.4C8.4 55.7667 8.36667 55.8 8.3 55.8C8.23333 55.8 8.2 55.8 8.2 55.8C8.13333 55.8667 8.06667 55.9 8 55.9C7.93333 55.9 7.86667 55.9 7.8 55.9V55.6ZM7.8 55.2V54.4C7.8 54.3333 7.76667 54.2667 7.7 54.2C7.7 54.1333 7.7 54.1 7.7 54.1C7.63333 54.0333 7.53333 53.9667 7.4 53.9C7.33333 53.9 7.23333 53.9 7.1 53.9C7.03333 53.9 6.96667 53.9 6.9 53.9C6.83333 53.9667 6.76667 54.0333 6.7 54.1C6.56667 54.3 6.5 54.5 6.5 54.7C6.5 54.9667 6.56667 55.2 6.7 55.4C6.76667 55.4667 6.86667 55.5333 7 55.6C7.06667 55.6667 7.16667 55.7 7.3 55.7C7.36667 55.7 7.43333 55.7 7.5 55.7C7.56667 55.7 7.63333 55.6667 7.7 55.6C7.7 55.5333 7.7 55.4667 7.7 55.4C7.76667 55.3333 7.8 55.2667 7.8 55.2ZM10.4 55.2V53.1C10.4 53.0333 10.3667 52.9333 10.3 52.8C10.3 52.7333 10.2667 52.6667 10.2 52.6C10.2 52.6 10.1667 52.6 10.1 52.6C10.0333 52.6 10 52.6 10 52.6C10 52.5333 10 52.5 10 52.5C10 52.4333 10 52.4 10 52.4C10.0667 52.4 10.1333 52.4333 10.2 52.5C10.3333 52.5 10.4333 52.5 10.5 52.5C10.5667 52.5 10.6667 52.5 10.8 52.5C10.9333 52.4333 11.0667 52.4 11.2 52.4C11.4667 52.4 11.7333 52.5 12 52.7C12.1333 52.7667 12.2333 52.8667 12.3 53C12.3667 53.1333 12.4 53.2667 12.4 53.4C12.4 53.5333 12.3667 53.6667 12.3 53.8C12.2333 53.8667 12.1333 53.9667 12 54.1C11.8 54.2333 11.5667 54.3 11.3 54.3C11.1667 54.3 11.0667 54.3 11 54.3C10.9333 54.3 10.8667 54.2667 10.8 54.2C10.8667 54.2 10.9 54.2 10.9 54.2C10.9 54.2 10.9333 54.2 11 54.2C11.0667 54.2 11.1333 54.2 11.2 54.2C11.4 54.2 11.6 54.1333 11.8 54C11.8667 53.9333 11.9 53.8667 11.9 53.8C11.9667 53.7333 12 53.6333 12 53.5C12 53.3667 11.9667 53.2667 11.9 53.2C11.9 53.0667 11.8333 52.9667 11.7 52.9C11.5 52.7 11.2 52.6 11 52.6C10.9333 52.6 10.8667 52.6333 10.8 52.7C10.7333 52.7 10.7 52.7 10.7 52.7C10.7 52.7667 10.7 52.8 10.7 52.8V55.2C10.7 55.3333 10.7333 55.4667 10.8 55.6C10.8 55.6667 10.8333 55.7 10.9 55.7C10.9667 55.7 11.0333 55.7333 11.1 55.8C11.1 55.8 11.1333 55.8 11.2 55.8C11.2 55.8667 11.2 55.9 11.2 55.9C11.2 55.9 11.1667 55.9 11.1 55.9C11.0333 55.9 10.9333 55.9 10.8 55.9C10.6667 55.9 10.5667 55.9 10.5 55.9C10.3667 55.9 10.2333 55.9 10.1 55.9H10C10 55.8333 10 55.8 10 55.8C10 55.8 10.0333 55.7667 10.1 55.7C10.1667 55.7 10.2 55.6667 10.2 55.6C10.2667 55.6 10.3 55.5667 10.3 55.5C10.3667 55.3667 10.4 55.2667 10.4 55.2ZM13 55.3V54.2C12.9333 54.1333 12.9 54.1 12.9 54.1C12.9 54.1 12.8667 54.0667 12.8 54C12.8 54 12.7667 54 12.7 54C12.6333 54 12.6 54 12.6 54C12.6 53.9333 12.6 53.9 12.6 53.9C12.6667 53.9 12.7 53.9 12.7 53.9C12.7 53.9 12.7 53.9 12.8 53.9C12.8667 53.9 12.9333 53.8667 13 53.8C13 53.8 13.0333 53.8 13.1 53.8C13.1667 53.7333 13.2 53.7 13.2 53.7C13.2667 53.7 13.3 53.7 13.3 53.7C13.3 53.7667 13.3 53.8 13.3 53.8V54.1C13.3667 54.0333 13.4667 53.9333 13.6 53.8C13.6667 53.8 13.7333 53.8 13.8 53.8C13.8667 53.8 13.9333 53.8 14 53.8C14 53.8667 14.0333 53.9 14.1 53.9C14.1 53.9667 14.1 54 14.1 54C14.1 54.0667 14.0667 54.1 14 54.1C14 54.1667 13.9667 54.2 13.9 54.2C13.9 54.2 13.8667 54.1667 13.8 54.1C13.7333 54.1 13.6667 54.1 13.6 54.1C13.6 54.1 13.5667 54.1 13.5 54.1C13.5 54.1 13.4667 54.1333 13.4 54.2C13.3333 54.2667 13.3 54.3667 13.3 54.5V55.3C13.3 55.3667 13.3 55.4667 13.3 55.6C13.3667 55.6 13.4 55.6333 13.4 55.7C13.4 55.7 13.4333 55.7 13.5 55.7C13.5667 55.7 13.6 55.7333 13.6 55.8C13.6667 55.7333 13.7 55.7333 13.7 55.8C13.7 55.8667 13.7 55.9 13.7 55.9C13.6333 55.9 13.5667 55.9 13.5 55.9C13.3667 55.9 13.2667 55.9 13.2 55.9C13.0667 55.9 12.9333 55.9 12.8 55.9C12.7333 55.9 12.7 55.9 12.7 55.9C12.7 55.9 12.7 55.8667 12.7 55.8C12.7 55.8 12.7333 55.8 12.8 55.8C12.8 55.7333 12.8 55.7 12.8 55.7C12.8667 55.7 12.9 55.7 12.9 55.7C12.9 55.6333 12.9 55.5667 12.9 55.5C12.9667 55.4333 13 55.3667 13 55.3Z" fill="white"/>
<path fill-rule="evenodd" clip-rule="evenodd" d="M15.4 53.8C15.5333 53.8 15.6333 53.8 15.7 53.8C15.8333 53.8667 15.9667 53.9667 16.1 54.1C16.1667 54.1667 16.2 54.2333 16.2 54.3C16.2 54.3667 16.2 54.4333 16.2 54.5C16.2 54.5667 16.2 54.6 16.2 54.6C16.2 54.6 16.1667 54.6 16.1 54.6H15.4V54.5H15.5C15.5667 54.5 15.6667 54.5 15.8 54.5C15.8 54.4333 15.8 54.4 15.8 54.4C15.8 54.3333 15.8 54.2667 15.8 54.2C15.7333 54.1333 15.7 54.0667 15.7 54C15.6 54 15.5 53.9 15.4 53.9V53.8ZM15.4 55.7C15.4667 55.7 15.5333 55.7 15.6 55.7C15.8 55.7 15.9667 55.6333 16.1 55.5C16.1667 55.5 16.2 55.4667 16.2 55.4C16.2 55.4667 16.2 55.5 16.2 55.5C16.2667 55.5 16.3 55.5 16.3 55.5C16.3 55.5 16.2667 55.5333 16.2 55.6C16.2 55.6 16.2 55.6333 16.2 55.7C16.0667 55.7667 15.9333 55.8333 15.8 55.9C15.6667 55.9667 15.5333 56 15.4 56V55.7ZM16.7 55.7C16.7 55.7 16.7 55.3 16.7 55.2C16.7 55.2 16.7333 55.2 16.8 55.2C16.8 55.2 16.8 55.2333 16.8 55.3C16.8 55.4 16.8 55.4 16.8 55.4C16.8667 55.5333 16.9333 55.6333 17 55.7C17.1 55.8 17.2 55.8 17.3 55.8C17.4333 55.8 17.5333 55.7667 17.6 55.7C17.6667 55.7 17.7 55.6667 17.7 55.6C17.7667 55.5333 17.8 55.4667 17.8 55.4C17.8 55.2667 17.6333 55.1333 17.3 55C17.3 55 17.2667 54.9667 17.2 54.9C17.0667 54.9 16.9333 54.8333 16.8 54.7C16.7333 54.5667 16.7 54.4667 16.7 54.4C16.7 54.3333 16.7333 54.2667 16.8 54.2C16.8 54.1333 16.8333 54.0667 16.9 54C17.0333 53.8667 17.2 53.8 17.4 53.8C17.5333 53.8 17.6333 53.8333 17.7 53.9C17.8333 53.9 17.9 53.9333 17.9 54V54.3C17.9 54.3 17.8667 54.3333 17.8 54.4C17.8 54.4 17.8 54.3667 17.8 54.3C17.8 54.2333 17.7667 54.2 17.7 54.2C17.7 54.1333 17.6333 54.0667 17.5 54C17.4333 53.9333 17.3667 53.9 17.3 53.9C17.2333 53.9 17.1667 53.9333 17.1 54C17.0333 54.0667 17 54.1 17 54.1C17 54.1667 17 54.2 17 54.2C17 54.4 17.1667 54.5667 17.5 54.7C17.5667 54.7 17.6 54.7 17.6 54.7C17.7333 54.7667 17.8333 54.8333 17.9 54.9C17.9667 55.0333 18 55.1667 18 55.3C18 55.3667 18 55.4667 18 55.6C17.9333 55.6667 17.8667 55.7333 17.8 55.8C17.7333 55.8667 17.6667 55.9 17.6 55.9C17.4667 55.9667 17.3667 56 17.3 56C17.1667 56 17.0333 55.9667 16.9 55.9C16.8333 55.8333 16.8 55.8 16.8 55.8C16.7333 55.8 16.7 55.8 16.7 55.8C16.7 55.7333 16.7 55.7 16.7 55.7ZM18.5 54.1C18.4333 54.1 18.4 54.0667 18.4 54C18.4 54 18.4333 53.9667 18.5 53.9C18.5667 53.8333 18.6333 53.7667 18.7 53.7C18.7667 53.6333 18.8 53.5667 18.8 53.5C18.8667 53.4333 18.9 53.4 18.9 53.4C18.9667 53.4 19 53.4 19 53.4C19 53.4 19 53.8 19 53.9H19.4C19.4667 53.9 19.5667 53.8667 19.7 53.8C19.7 53.8667 19.7 53.9333 19.7 54C19.6333 54 19.6 54.0333 19.6 54.1H19V55.4C19 55.4667 19 55.5333 19 55.6C19 55.6 19.0333 55.6333 19.1 55.7C19.1 55.7 19.1333 55.7333 19.2 55.8C19.2 55.8 19.2333 55.8 19.3 55.8C19.4333 55.8 19.5333 55.7667 19.6 55.7C19.6667 55.7 19.7 55.7 19.7 55.7C19.7667 55.7 19.8 55.7 19.8 55.7C19.8 55.7667 19.7333 55.8333 19.6 55.9C19.4667 55.9667 19.3333 56 19.2 56C19.1333 56 19.0667 55.9667 19 55.9C18.8667 55.9 18.8 55.8667 18.8 55.8C18.7 55.7 18.6 55.5 18.6 55.3V54.1H18.5ZM20.4 52.9C20.4667 52.8333 20.5333 52.8 20.6 52.8C20.6 52.8 20.6333 52.8333 20.7 52.9C20.7 52.9 20.7333 52.9 20.8 52.9C20.8 52.9667 20.8 53 20.8 53C20.8 53.0667 20.8 53.1 20.8 53.1C20.7333 53.1667 20.7 53.2 20.7 53.2C20.6333 53.2667 20.6 53.3 20.6 53.3C20.5333 53.3 20.5 53.3 20.5 53.3C20.4333 53.2333 20.4 53.2 20.4 53.2C20.4 53.1333 20.3667 53.1 20.3 53.1C20.3667 53.0333 20.4 52.9667 20.4 52.9ZM20.4 54.5C20.4 54.3667 20.3667 54.2667 20.3 54.2C20.3 54.1333 20.3 54.1 20.3 54.1C20.2333 54.1 20.2 54.1 20.2 54.1C20.1333 54.1 20.1 54.1 20.1 54.1C20.1 54.1 20.1 54.0667 20.1 54C20.1 54 20.1333 54 20.2 54C20.2 53.9333 20.2333 53.9 20.3 53.9C20.3 53.9 20.3333 53.9 20.4 53.9C20.4667 53.8333 20.5333 53.8 20.6 53.8C20.6 53.8 20.6333 53.7667 20.7 53.7C20.7 53.7 20.7333 53.7333 20.8 53.8C20.8 54.1 20.8 55.1 20.8 55.4C20.8 55.4667 20.8 55.5333 20.8 55.6C20.8 55.6667 20.8333 55.7 20.9 55.7C20.9 55.7 20.9333 55.7 21 55.7C21 55.7667 21.0333 55.8 21.1 55.8C21.1667 55.8 21.2 55.8 21.2 55.8C21.2 55.8 21.2 55.8333 21.2 55.9C21.2 55.9 21.1667 55.9 21.1 55.9C21.1 55.9 21.0333 55.9 20.9 55.9C20.8333 55.9 20.7333 55.9 20.6 55.9C20.4667 55.9 20.3333 55.9 20.2 55.9C20.2 55.9 20.1667 55.9 20.1 55.9C20.1 55.8333 20.1 55.8 20.1 55.8C20.1 55.8 20.1333 55.8 20.2 55.8C20.2 55.8 20.2 55.7667 20.2 55.7C20.2667 55.7 20.3 55.7 20.3 55.7C20.3 55.6333 20.3 55.6 20.3 55.6C20.3667 55.5333 20.4 55.4667 20.4 55.4V54.5ZM21.7 55.9C21.6333 55.8333 21.5667 55.8 21.5 55.8C21.5 55.7333 21.5 55.6667 21.5 55.6C21.5 55.5333 21.5333 55.4667 21.6 55.4C21.6 55.2667 21.6667 55.1667 21.8 55.1C21.6667 55.0333 21.5667 54.9667 21.5 54.9C21.5 54.7667 21.5 54.6333 21.5 54.5C21.5 54.4333 21.5 54.3333 21.5 54.2C21.5667 54.1333 21.6333 54.0667 21.7 54C21.7667 53.9333 21.8333 53.8667 21.9 53.8C22.0333 53.7333 22.1333 53.7333 22.2 53.8C22.4 53.8 22.5667 53.8333 22.7 53.9C22.7667 53.9 22.8333 53.9333 22.9 54C22.9667 54 23 53.9667 23 53.9C23.0667 53.9 23.1333 53.8667 23.2 53.8C23.2 53.7333 23.2 53.7 23.2 53.7C23.2667 53.7 23.3 53.7 23.3 53.7C23.3 53.7 23.3 53.7333 23.3 53.8C23.3 53.8667 23.2667 53.9333 23.2 54C23.2 54.1 23.1 54.2 23 54.2C23 54.2667 23 54.3333 23 54.4C23.0667 54.4 23.1 54.4333 23.1 54.5C23.1 54.5667 23.0667 54.6667 23 54.8C22.9333 54.8667 22.8667 54.9333 22.8 55C22.6667 55.2 22.4667 55.2667 22.2 55.2C22.1333 55.2 22.0667 55.2 22 55.2C21.9333 55.2 21.9 55.2 21.9 55.2C21.8333 55.2 21.8 55.2333 21.8 55.3C21.7333 55.3667 21.7 55.4333 21.7 55.5C21.7 55.5 21.7 55.5333 21.7 55.6C21.7667 55.6 21.8 55.6 21.8 55.6C22.0667 55.6667 22.3333 55.7 22.6 55.7C22.7 55.7 22.9 55.7 23 55.8C23.0667 55.8667 23.1333 55.9333 23.2 56C23.2 56.0667 23.2 56.1333 23.2 56.2C23.2 56.2667 23.1667 56.3333 23.1 56.4C23.0333 56.5333 22.9667 56.6 22.9 56.6C22.7 56.8 22.4333 56.8667 22.1 56.8C21.9 56.8 21.7 56.7667 21.5 56.7C21.4333 56.6333 21.4 56.5667 21.4 56.5C21.3333 56.4333 21.3 56.3667 21.3 56.3C21.3 56.2333 21.3333 56.1667 21.4 56.1C21.4667 56.0333 21.5667 55.9667 21.7 55.9ZM21.9 54.9C21.9667 54.9667 22.0333 55.0333 22.1 55.1C22.1667 55.1 22.2333 55.1 22.3 55.1C22.3667 55.1 22.4333 55.1 22.5 55.1C22.5667 55.0333 22.6 55 22.6 55C22.6667 54.8667 22.7 54.7 22.7 54.5C22.7 54.3667 22.6667 54.2 22.6 54C22.6 54 22.5667 53.9667 22.5 53.9C22.4333 53.9 22.3667 53.9 22.3 53.9C22.1667 53.9 22.1 53.9 22.1 53.9C22.0333 53.9 21.9667 53.9333 21.9 54C21.8333 54.1333 21.8 54.2667 21.8 54.4C21.8 54.6 21.8 54.8 21.9 54.9ZM21.8 55.9C21.7333 55.9667 21.6667 56.0333 21.6 56.1C21.6 56.1667 21.6 56.2333 21.6 56.3C21.6 56.3667 21.6 56.4333 21.6 56.5C21.6 56.5 21.6333 56.5333 21.7 56.6C21.8333 56.6667 22 56.7 22.2 56.7C22.4 56.7 22.6 56.6667 22.8 56.6C22.8667 56.5333 22.9 56.4667 22.9 56.4C22.9667 56.3333 23 56.2667 23 56.2C22.9333 56.1333 22.9 56.1 22.9 56.1C22.8333 56.0333 22.7667 56 22.7 56C22.6333 56 22.5333 56 22.4 56C22.2 56 22 55.9667 21.8 55.9ZM23.9 54.7C23.9 54.6333 23.9 54.6 23.9 54.6V54.7ZM24.1 55.5C24.1667 55.5667 24.2667 55.6333 24.4 55.7C24.4667 55.7 24.5667 55.7 24.7 55.7C24.9 55.7 25.0667 55.6667 25.2 55.6C25.2667 55.5333 25.3 55.5 25.3 55.5C25.3 55.5 25.3333 55.5 25.4 55.5C25.4 55.5 25.4 55.5333 25.4 55.6C25.3 55.6 25.3 55.7 25.3 55.7C25.1667 55.8333 25.0333 55.9 24.9 55.9C24.7667 55.9667 24.6333 56 24.5 56C24.3667 56 24.2333 55.9667 24.1 55.9C23.9667 55.9 23.8667 55.8333 23.8 55.7C23.6667 55.5 23.6 55.2667 23.6 55C23.6 54.6667 23.6667 54.4 23.8 54.2C23.8667 54.0667 23.9667 53.9667 24.1 53.9C24.2333 53.9 24.3667 53.9 24.5 53.9C24.6333 53.9 24.7667 53.9 24.9 53.9C25.0333 53.9667 25.1333 54.0667 25.2 54.2C25.2 54.2667 25.2333 54.3333 25.3 54.4C25.3 54.4667 25.3 54.5333 25.3 54.6C25.3 54.6667 25.3 54.7 25.3 54.7C25.3 54.7 25.2667 54.7 25.2 54.7H23.9C23.9 54.9667 23.9667 55.2333 24.1 55.5ZM23.9 54.6H24.6C24.6667 54.6 24.7667 54.6 24.9 54.6C24.9 54.5333 24.9 54.5 24.9 54.5C24.9667 54.5 24.9667 54.5 24.9 54.5C24.9 54.4333 24.9 54.3667 24.9 54.3C24.9 54.2333 24.8667 54.1667 24.8 54.1C24.6667 54.0333 24.5333 54 24.4 54C24.3333 54 24.2667 54 24.2 54C24.1333 54.0667 24.1 54.1 24.1 54.1C23.9667 54.2333 23.9 54.4 23.9 54.6ZM27.1 54.1C27.0333 54.1 27 54.1 27 54.1C27 54.0333 27.0333 53.9667 27.1 53.9C27.1667 53.8333 27.2333 53.7667 27.3 53.7C27.3667 53.6333 27.4333 53.5667 27.5 53.5C27.5 53.4333 27.5 53.4 27.5 53.4C27.5667 53.4 27.6 53.4 27.6 53.4C27.6 53.4 27.6 53.4333 27.6 53.5V53.9H28C28.0667 53.9 28.1667 53.8667 28.3 53.8V53.9C28.3 53.9667 28.3 54 28.3 54C28.2333 54.0667 28.2 54.1 28.2 54.1C28.1333 54.1 28.1 54.1 28.1 54.1H27.6V55.5C27.6 55.5 27.6 55.5333 27.6 55.6C27.6 55.6667 27.6333 55.7 27.7 55.7C27.7 55.7667 27.7333 55.8 27.8 55.8C27.8667 55.8 27.9 55.8 27.9 55.8C28.0333 55.8 28.1333 55.7667 28.2 55.7C28.2667 55.7 28.3 55.7 28.3 55.7C28.3667 55.7 28.4 55.7 28.4 55.7C28.3333 55.7667 28.2667 55.8333 28.2 55.9C28.0667 55.9667 27.9333 56 27.8 56C27.7333 56 27.6667 56 27.6 56C27.5333 55.9333 27.4667 55.9 27.4 55.9C27.2667 55.7 27.2 55.5333 27.2 55.4V54.1H27.1ZM28.7 54.9C28.7 54.6333 28.8 54.3667 29 54.1C29.2 53.9 29.4667 53.8 29.8 53.8C29.9333 53.8 30.0667 53.8333 30.2 53.9C30.3333 53.9667 30.4333 54.0333 30.5 54.1C30.6333 54.2333 30.7333 54.3667 30.8 54.5C30.8 54.6333 30.8 54.7667 30.8 54.9C30.8 55.0333 30.8 55.1667 30.8 55.3C30.7333 55.4333 30.6333 55.5667 30.5 55.7C30.4333 55.7667 30.3333 55.8333 30.2 55.9C30 55.9667 29.8333 56 29.7 56C29.5667 56 29.4333 55.9667 29.3 55.9C29.1667 55.9 29.0667 55.8333 29 55.7C28.8667 55.6333 28.8 55.5333 28.8 55.4C28.7333 55.2 28.7 55.0333 28.7 54.9ZM29.2 55.6C29.2667 55.6667 29.3667 55.7333 29.5 55.8C29.5667 55.8667 29.6667 55.9 29.8 55.9C29.8667 55.9 29.9667 55.8667 30.1 55.8C30.1667 55.8 30.2333 55.7667 30.3 55.7C30.4333 55.5 30.5 55.2667 30.5 55C30.5 54.8 30.4 54.5 30.3 54.2C30.2333 54.1333 30.1333 54.0667 30 54C29.9333 53.9333 29.8333 53.9 29.7 53.9C29.6333 53.9 29.5333 53.9333 29.4 54C29.3333 54.0667 29.2667 54.1333 29.2 54.2C29.0667 54.3333 29 54.5333 29 54.8C29 55.1 29.1 55.4 29.2 55.6Z" fill="white"/>
<path fill-rule="evenodd" clip-rule="evenodd" d="M32.3 54.1C32.3 54.1 32.2667 54.0667 32.2 54C32.2 54 32.1667 53.9667 32.1 53.9C32.0333 53.9 32 53.9 32 53.9C32 53.8333 32 53.8 32 53.8C32.0667 53.8 32.1 53.8 32.1 53.8C32.1667 53.8 32.2333 53.8 32.3 53.8C32.3667 53.8 32.4333 53.8 32.5 53.8C32.5667 53.8 32.6333 53.8 32.7 53.8C32.7667 53.8 32.8333 53.8 32.9 53.8C32.9 53.8 32.9 53.8333 32.9 53.9C32.8333 53.9 32.8 53.9 32.8 53.9C32.8 53.9 32.7667 53.9333 32.7 54C32.7 54.0667 32.7 54.1 32.7 54.1C32.7 54.1 32.7 54.1333 32.7 54.2C32.7 54.2 32.7 54.2333 32.7 54.3L33.2 55.4L33.6 54.6C33.6 54.5333 33.6 54.4333 33.6 54.3C33.6 54.2333 33.6 54.1667 33.6 54.1C33.6 54.1 33.6 54.0667 33.6 54C33.6 54 33.5667 53.9667 33.5 53.9C33.4333 53.9 33.4 53.9 33.4 53.9C33.4 53.9 33.4 53.8667 33.4 53.8C33.4 53.8 33.4333 53.8 33.5 53.8C33.5 53.8 33.5333 53.8 33.6 53.8C33.6 53.8 33.6333 53.8 33.7 53.8C33.7667 53.8 33.8333 53.8 33.9 53.8C33.9667 53.8 34 53.8 34 53.8C34.0667 53.8 34.1 53.8 34.1 53.8C34.1 53.8667 34.1 53.9 34.1 53.9C34.1 53.9 34.0667 53.9 34 53.9C34 53.9 34 53.9333 34 54C33.9333 54 33.9 54 33.9 54C33.9 54.0667 33.8667 54.1333 33.8 54.2L32.9 56.7C32.9 56.7667 32.9 56.8 32.9 56.8C32.8333 56.8 32.7667 56.8 32.7 56.8C32.6333 56.8 32.6 56.8 32.6 56.8C32.6 56.8 32.6 56.7667 32.6 56.7C32.6 56.7 32.6 56.6667 32.6 56.6C32.6667 56.5333 32.7333 56.5 32.8 56.5C32.8667 56.3667 32.9333 56.2667 33 56.2C33 56.0667 33 55.9667 33 55.9C33 55.8333 32.9667 55.7333 32.9 55.6L32.3 54.1ZM34.3 54.8C34.3 54.5333 34.4 54.2667 34.6 54C34.8 53.8 35.1 53.7 35.4 53.7C35.5333 53.7 35.6667 53.7333 35.8 53.8C35.9333 53.8 36.0333 53.8667 36.1 54C36.2333 54.1333 36.3333 54.2667 36.4 54.4C36.4 54.4667 36.4 54.6 36.4 54.8C36.4 54.9333 36.4 55.0667 36.4 55.2C36.3333 55.3333 36.2333 55.4667 36.1 55.6C36.0333 55.6667 35.9333 55.7333 35.8 55.8C35.6667 55.8667 35.5333 55.9 35.4 55.9C35.2 55.9 35.0333 55.8667 34.9 55.8C34.8333 55.7333 34.7333 55.6667 34.6 55.6C34.4667 55.4667 34.4 55.3333 34.4 55.2C34.3333 55.0667 34.3 54.9333 34.3 54.8ZM34.8 55.5C34.8667 55.5667 34.9667 55.6333 35.1 55.7C35.1667 55.7667 35.2667 55.8 35.4 55.8C35.4667 55.8 35.5667 55.7667 35.7 55.7C35.7667 55.7 35.8333 55.6333 35.9 55.5C36.0333 55.3667 36.1 55.1667 36.1 54.9C36.1 54.6333 36.0333 54.3667 35.9 54.1C35.8333 54.0333 35.7333 53.9667 35.6 53.9C35.5333 53.8333 35.4333 53.8 35.3 53.8C35.2333 53.8 35.1667 53.8 35.1 53.8C34.9667 53.8667 34.8667 53.9333 34.8 54C34.6667 54.2 34.6 54.4333 34.6 54.7C34.6 54.9 34.7 55.2 34.8 55.5ZM38.4 55.5C38.2667 55.6333 38.1667 55.7333 38.1 55.8C37.9667 55.8 37.8333 55.8 37.7 55.8C37.5667 55.8667 37.4667 55.8667 37.4 55.8C37.3333 55.7333 37.2667 55.6667 37.2 55.6C37.1 55.5 37 55.3 37 55.1V54.2C37 54.1333 37 54.0667 37 54C37 54 36.9667 53.9667 36.9 53.9C36.9 53.9 36.8667 53.9 36.8 53.9C36.8 53.8333 36.8333 53.8 36.9 53.8C37.0333 53.8 37.1667 53.8 37.3 53.8C37.3667 53.8 37.4 53.8 37.4 53.8C37.4 54 37.4 54.2 37.4 54.3V55C37.4 55.2 37.4333 55.3667 37.5 55.5C37.5667 55.5667 37.6333 55.6 37.7 55.6C37.7667 55.6667 37.8333 55.7 37.9 55.7C38.0333 55.7 38.1667 55.6333 38.3 55.5C38.3 55.5 38.3333 55.4667 38.4 55.4C38.4 55.3333 38.4 55.2667 38.4 55.2V54.2C38.4 54.1333 38.4 54.0667 38.4 54C38.3333 54 38.3 54 38.3 54C38.3 53.9333 38.2667 53.9 38.2 53.9C38.1333 53.9 38.1 53.9 38.1 53.9C38.1 53.9 38.1 53.8667 38.1 53.8C38.1 53.8 38.1333 53.8 38.2 53.8C38.2 53.8 38.2333 53.8 38.3 53.8C38.3667 53.8 38.4333 53.8 38.5 53.8C38.6333 53.7333 38.7 53.7333 38.7 53.8C38.7 53.9 38.7 54.1 38.7 54.1V55.4C38.7 55.4667 38.7333 55.5333 38.8 55.6C38.8 55.6 38.8 55.6333 38.8 55.7C38.8667 55.7 38.9 55.7 38.9 55.7C38.9667 55.7 39 55.7 39 55.7C39 55.7667 39 55.8 39 55.8C39 55.8 38.9667 55.8 38.9 55.8H38.5C38.4333 55.8 38.4 55.8 38.4 55.8C38.4 55.7333 38.4 55.7 38.4 55.7V55.5ZM39.6 55.2V54.1C39.6 54.0333 39.6 54 39.6 54C39.5333 54 39.5 53.9667 39.5 53.9C39.4333 53.9 39.4 53.9 39.4 53.9C39.3333 53.9 39.3 53.9 39.3 53.9C39.3 53.8333 39.3 53.8 39.3 53.8C39.3 53.8 39.3333 53.8 39.4 53.8C39.4667 53.8 39.5333 53.7667 39.6 53.7C39.6667 53.7 39.7333 53.6667 39.8 53.6C39.8 53.6 39.8333 53.6 39.9 53.6C39.9667 53.6 40 53.6 40 53.6C40 53.6667 40 53.7 40 53.7V54.1C40.0667 53.9667 40.1667 53.8333 40.3 53.7C40.3 53.7 40.3667 53.7 40.5 53.7C40.5667 53.7 40.6333 53.7 40.7 53.7C40.7 53.7667 40.7333 53.8 40.8 53.8C40.8 53.8667 40.8 53.9 40.8 53.9C40.8 53.9667 40.7667 54 40.7 54C40.7 54.0667 40.6667 54.1 40.6 54.1C40.6 54.1 40.5667 54.1 40.5 54.1C40.4333 54.0333 40.3667 54 40.3 54C40.2333 54 40.2 54 40.2 54C40.1333 54.0667 40.1 54.1 40.1 54.1C40.0333 54.1667 40 54.2667 40 54.4V55.1C40 55.2333 40 55.3667 40 55.5C40 55.5 40.0333 55.5333 40.1 55.6C40.1 55.6 40.1333 55.6 40.2 55.6L40.3 55.7C40.3 55.6333 40.3333 55.6333 40.4 55.7C40.4 55.7667 40.4 55.8 40.4 55.8C40.4 55.8 40.3667 55.8 40.3 55.8C40.3 55.8 40.2667 55.8 40.2 55.8C40.0667 55.8 39.9667 55.8 39.9 55.8C39.7 55.8 39.5667 55.8 39.5 55.8H39.4C39.4 55.8 39.4 55.7667 39.4 55.7C39.4667 55.6333 39.5 55.6 39.5 55.6C39.5667 55.5333 39.6 55.4667 39.6 55.4C39.6 55.3333 39.6 55.2667 39.6 55.2ZM42.5 55.2V52.9C42.5 52.7667 42.5 52.6333 42.5 52.5C42.5 52.5 42.4667 52.5 42.4 52.5C42.4 52.5 42.3667 52.5 42.3 52.5C42.2333 52.5 42.2 52.5 42.2 52.5C42.2 52.4333 42.2 52.4 42.2 52.4C42.2 52.4 42.2333 52.3667 42.3 52.3C42.3667 52.3 42.4 52.3 42.4 52.3C42.4667 52.3 42.5 52.3 42.5 52.3C42.5667 52.2333 42.6333 52.2 42.7 52.2C42.7667 52.1333 42.8 52.1 42.8 52.1C42.8667 52.1 42.9 52.1 42.9 52.1C42.9 52.1667 42.9 52.2 42.9 52.2V52.3C42.9 52.5 42.9 52.7333 42.9 53V55.2C42.9 55.2667 42.9 55.3667 42.9 55.5C42.9667 55.5667 43 55.6 43 55.6C43.0667 55.6 43.1333 55.6 43.2 55.6C43.2 55.6 43.2 55.6333 43.2 55.7C43.2667 55.7 43.3 55.7 43.3 55.7C43.2333 55.7 43.2 55.7 43.2 55.7C43.2 55.7667 43.2 55.8 43.2 55.8C43.1333 55.8 43.0667 55.8 43 55.8C42.9333 55.7333 42.8667 55.7 42.8 55.7C42.6667 55.7 42.5333 55.7333 42.4 55.8H42.3C42.3 55.8 42.3 55.7667 42.3 55.7C42.3 55.6333 42.3333 55.6 42.4 55.6C42.4 55.6 42.4333 55.5667 42.5 55.5C42.5 55.5 42.5 55.4667 42.5 55.4C42.5 55.3333 42.5 55.2667 42.5 55.2ZM43.8 52.9C43.8 52.8333 43.8333 52.7667 43.9 52.7C43.9 52.6333 43.9333 52.6 44 52.6C44 52.6 44.0333 52.6333 44.1 52.7C44.1667 52.7667 44.2 52.8 44.2 52.8C44.2 52.8 44.2 52.8333 44.2 52.9C44.2 52.9 44.2 52.9333 44.2 53C44.2 53 44.1667 53 44.1 53C44.1 53.1 44 53.1 44 53.1C43.9333 53.1 43.9 53.1 43.9 53.1C43.9 53.1 43.8667 53.0667 43.8 53C43.8 52.9333 43.8 52.9 43.8 52.9ZM43.8 54.3C43.8 54.2333 43.8 54.1333 43.8 54C43.7333 54 43.7 53.9667 43.7 53.9C43.7 53.9 43.6667 53.9 43.6 53.9C43.6 53.9 43.5667 53.9 43.5 53.9C43.5 53.8333 43.5333 53.8 43.6 53.8C43.6 53.8 43.6333 53.8 43.7 53.8C43.7667 53.8 43.8 53.7667 43.8 53.7C43.9 53.7 43.9 53.7 44 53.6C44.0667 53.6 44.1 53.6 44.1 53.6C44.1667 53.6 44.2 53.6 44.2 53.6C44.2 53.6 44.2 53.6333 44.2 53.7C44.2 53.9667 44.2 54.2 44.2 54.4V55.2C44.2 55.2667 44.2 55.3667 44.2 55.5C44.2667 55.5667 44.3 55.6 44.3 55.6C44.3667 55.6 44.4 55.6 44.4 55.6C44.4 55.6 44.4333 55.6 44.5 55.6C44.5 55.6 44.5333 55.6 44.6 55.6C44.6 55.6667 44.6 55.7 44.6 55.7C44.5333 55.7667 44.5 55.8 44.5 55.8C44.5 55.8 44.4333 55.7667 44.3 55.7C44.2333 55.7 44.1333 55.7 44 55.7C43.8667 55.7 43.7667 55.7333 43.7 55.8H43.6C43.6 55.8 43.6 55.7667 43.6 55.7C43.6 55.6333 43.6 55.6 43.6 55.6C43.7 55.6 43.7 55.5 43.7 55.5C43.7667 55.5 43.8 55.4667 43.8 55.4C43.8 55.3333 43.8 55.2667 43.8 55.2V54.3ZM45 55.2V53.9H44.8C44.7333 53.9 44.7 53.9 44.7 53.9C44.7 53.8333 44.7333 53.7667 44.8 53.7C44.8 53.7 44.8333 53.7 44.9 53.7H45.1C45.1 53.3 45.2 52.9333 45.4 52.6C45.4667 52.4667 45.5667 52.3667 45.7 52.3C45.8333 52.2333 46 52.1667 46.2 52.1C46.2 52.1 46.2333 52.1333 46.3 52.2C46.3 52.2 46.3 52.2333 46.3 52.3C46.3 52.3667 46.3 52.4333 46.3 52.5C46.3 52.6 46.3 52.6 46.2 52.6C46.2 52.6 46.2 52.5667 46.2 52.5C46.2 52.4333 46.1667 52.4 46.1 52.4C46.0333 52.4 45.9667 52.4 45.9 52.4C45.8333 52.4 45.7667 52.4333 45.7 52.5C45.6333 52.5 45.6 52.5667 45.6 52.7C45.4667 52.8333 45.4 53.0333 45.4 53.3V53.7H45.6C45.7333 53.7 45.8333 53.7 45.9 53.7C45.9 53.6333 45.9 53.6 45.9 53.6C45.9667 53.6 46 53.6 46 53.6C46 53.6667 45.9667 53.7333 45.9 53.8C45.9 53.8 45.9 53.8333 45.9 53.9C45.9 53.9 45.8667 53.9 45.8 53.9H45.4V55.2C45.4 55.2667 45.4333 55.3667 45.5 55.5C45.5 55.5 45.5333 55.5333 45.6 55.6C45.6 55.6 45.6333 55.6 45.7 55.6V55.7C45.7 55.7 45.6667 55.7 45.6 55.7C45.4667 55.7 45.3667 55.7 45.3 55.7C45.1667 55.7 45.0333 55.7 44.9 55.7C44.8333 55.7667 44.8 55.7667 44.8 55.7C44.8667 55.6333 44.9 55.6 44.9 55.6C44.9667 55.6 45 55.5667 45 55.5C45 55.5 45 55.4667 45 55.4C45.0667 55.3333 45.0667 55.2667 45 55.2ZM46.5 54.5C46.5 54.7667 46.5667 55 46.7 55.2C46.7667 55.3333 46.8667 55.4333 47 55.5C47.0667 55.5 47.1667 55.5 47.3 55.5C47.5 55.5 47.7 55.5 47.9 55.3C47.9 55.3 47.9333 55.3 48 55.3C48 55.3667 48 55.4 48 55.4C48 55.4 47.9667 55.4333 47.9 55.5C47.7667 55.5667 47.6333 55.6333 47.5 55.7C47.3667 55.7667 47.2333 55.8 47.1 55.8C46.9667 55.8 46.8333 55.7667 46.7 55.7C46.6333 55.6333 46.5333 55.5667 46.4 55.5C46.2 55.3 46.2 55 46.2 54.8C46.2 54.5 46.2 54.2 46.4 54C46.5333 53.8667 46.6333 53.7667 46.7 53.7C46.8333 53.6333 46.9667 53.6 47.1 53.6C47.2333 53.6 47.3667 53.6333 47.5 53.7C47.5667 53.7667 47.6667 53.8667 47.8 54C47.8667 54.0667 47.9 54.1333 47.9 54.2C47.9667 54.2667 48 54.3333 48 54.4C48 54.4 47.9667 54.4333 47.9 54.5C47.9 54.5 47.8667 54.5 47.8 54.5H46.5ZM47.2 54.4C47.2667 54.4 47.3667 54.3667 47.5 54.3C47.5 54.2333 47.5 54.1667 47.5 54.1C47.4333 54.0333 47.4 53.9667 47.4 53.9C47.2667 53.8333 47.1333 53.8 47 53.8C46.9333 53.8 46.8667 53.8 46.8 53.8C46.7333 53.8667 46.7 53.9 46.7 53.9C46.6 54.1 46.5 54.2 46.5 54.4H47.2Z" fill="white"/>
</g>
<defs>
<clipPath id="clip0_2_12">
<rect width="48" height="59" fill="white"/>
</clipPath>
</defs>
</svg>
